<?xml version="1.0" standalone="no"?>
<!DOCTYPE svg PUBLIC "-//W3C//DTD SVG 1.1//EN" "http://www.w3.org/Graphics/SVG/1.1/DTD/svg11.dtd">
<svg width="100%" height="100%" viewBox="0 0 409 68" version="1.1" xmlns="http://www.w3.org/2000/svg" xmlns:xlink="http://www.w3.org/1999/xlink" xml:space="preserve" style="fill-rule:evenodd;clip-rule:evenodd;stroke-linejoin:round;stroke-miterlimit:1.41421;">
    <g>
        <path d="M14.829,33.438C14.647,34.343 14.547,35.275 14.547,36.222C14.547,45.137 22.899,52.358 33.203,52.358C43.506,52.358 51.859,45.136 51.859,36.222C51.859,35.275 51.758,34.343 51.576,33.438C47.703,29.468 40.925,26.829 33.203,26.829C25.48,26.829 18.701,29.468 14.829,33.438ZM42.04,37.63C42.04,42.512 38.084,46.466 33.203,46.466C28.323,46.466 24.366,42.512 24.366,37.63C24.366,36.408 24.614,35.244 25.064,34.184C25.566,35.621 26.932,36.648 28.539,36.648C30.574,36.648 32.221,35.002 32.221,32.966C32.221,31.359 31.192,29.993 29.757,29.49C30.816,29.042 31.981,28.792 33.203,28.792C38.083,28.793 42.04,32.751 42.04,37.63Z" style="fill:white;fill-rule:nonzero;"/>
        <path d="M33.203,0C11.925,7.78 -3.311,32.049 0.619,56.561C0.619,56.561 13.335,68 33.202,68C53.069,68 65.785,56.561 65.785,56.561C69.716,32.049 54.48,7.78 33.203,0ZM61.265,53.832C61.265,53.832 56.601,57.789 49.565,59.987C49.297,60.072 48.984,60.078 48.704,59.914C48.293,59.675 48.183,59.193 48.427,58.771C48.467,58.703 48.581,58.566 48.69,58.476C50.379,57.087 51.792,55.357 52.95,53.351C55.023,49.759 55.782,45.773 55.376,41.941L55.373,41.933C54.169,48.127 50.389,53.785 44.496,57.189C31.968,64.42 16.179,62.52 5.143,53.834C5.143,53.834 4.047,47.815 5.661,40.623C5.722,40.35 5.873,40.075 6.156,39.916C6.569,39.678 7.04,39.822 7.283,40.246C7.324,40.314 7.385,40.482 7.408,40.621C7.765,42.777 8.556,44.865 9.715,46.873C11.789,50.464 14.863,53.114 18.382,54.679C16.543,53.08 14.932,51.153 13.645,48.922C11.475,45.164 10.51,41.044 10.626,37.003C10.897,22.798 20.349,10.367 33.202,5.228C33.202,5.228 38.961,7.29 44.384,12.282C44.591,12.473 44.751,12.742 44.75,13.066C44.747,13.542 44.388,13.878 43.899,13.878C43.819,13.878 43.644,13.847 43.511,13.799C41.464,13.029 39.261,12.669 36.943,12.669C32.796,12.669 28.963,14.007 25.85,16.274L25.846,16.278C32.364,14.023 39.461,14.928 45.141,18.456C57.236,25.812 63.236,40.172 61.265,53.832Z" style="fill:white;fill-rule:nonzero;"/>
    </g>
    <g>
        <rect x="80.235" y="15.819" width="9.362" height="38.528" style="fill:white;fill-rule:nonzero;"/>
        <path d="M127.582,17.266L126.918,25.419C124.379,23.81 121.32,23.004 117.737,23.004C114.154,23.004 111.154,24.122 108.738,26.356C106.322,28.589 105.116,31.499 105.116,35.082C105.116,38.667 106.342,41.564 108.8,43.778C111.255,45.993 114.333,47.1 118.039,47.1C122.025,47.1 125.185,46.336 127.519,44.805L126.734,53.2C124.398,54.569 121.036,55.255 116.65,55.255C114.073,55.255 111.546,54.81 109.069,53.925C106.595,53.04 104.349,51.782 102.336,50.151C100.324,48.519 98.702,46.396 97.476,43.779C96.247,41.162 95.633,38.265 95.633,35.083C95.633,30.856 96.699,27.173 98.835,24.032C100.968,20.892 103.594,18.587 106.715,17.117C109.833,15.648 113.146,14.913 116.65,14.913C121.239,14.912 124.883,15.696 127.582,17.266Z" style="fill:white;fill-rule:nonzero;"/>
        <path d="M172.932,35.022C172.932,41.02 170.869,45.89 166.743,49.635C162.615,53.38 157.754,55.253 152.159,55.253C146.603,55.253 141.76,53.38 137.634,49.635C133.508,45.89 131.445,41.02 131.445,35.022C131.445,29.103 133.508,24.272 137.634,20.527C141.76,16.784 146.603,14.912 152.159,14.912C155.742,14.912 159.103,15.718 162.243,17.328C165.384,18.937 167.949,21.304 169.942,24.425C171.935,27.542 172.932,31.076 172.932,35.022ZM163.45,35.022C163.45,31.56 162.325,28.709 160.069,26.476C157.813,24.243 155.179,23.124 152.159,23.124C149.139,23.124 146.512,24.242 144.279,26.476C142.042,28.709 140.926,31.56 140.926,35.022C140.926,38.523 142.042,41.392 144.279,43.627C146.512,45.86 149.139,46.979 152.159,46.979C155.179,46.979 157.813,45.861 160.069,43.627C162.325,41.393 163.45,38.524 163.45,35.022Z" style="fill:white;fill-rule:nonzero;"/>
        <path d="M214.542,54.77L209.831,54.77L194.854,38.343C192.761,36.048 190.365,33.232 187.666,29.889L187.546,29.949C187.666,32.689 187.728,35.385 187.728,38.041L187.728,54.348L178.369,54.348L178.369,15.819L185.918,15.819L198.961,30.192C201.416,32.887 203.509,35.345 205.241,37.559L205.362,37.497C205.241,35.203 205.18,32.809 205.18,30.312L205.18,15.819L214.541,15.819L214.541,54.77L214.542,54.77Z" style="fill:white;fill-rule:nonzero;"/>
        <path d="M244.191,23.488L230.544,23.488L230.544,31.157L241.776,31.157L241.776,38.947L230.544,38.947L230.544,54.346L221.185,54.346L221.185,15.819L244.192,15.819L244.192,23.488L244.191,23.488Z" style="fill:white;fill-rule:nonzero;"/>
        <rect x="249.019" y="15.819" width="9.362" height="38.528" style="fill:white;fill-rule:nonzero;"/>
        <path d="M301.801,54.77L297.091,54.77L282.113,38.343C280.019,36.048 277.625,33.232 274.925,29.889L274.806,29.949C274.925,32.689 274.988,35.385 274.988,38.041L274.988,54.348L265.628,54.348L265.628,15.819L273.177,15.819L286.22,30.192C288.675,32.887 290.769,35.345 292.501,37.559L292.621,37.497C292.501,35.203 292.438,32.809 292.438,30.312L292.438,15.819L301.8,15.819L301.8,54.77L301.801,54.77Z" style="fill:white;fill-rule:nonzero;"/>
        <path d="M336.071,21.073C340.077,24.574 342.082,29.246 342.082,35.082C342.082,40.92 340.077,45.589 336.071,49.092C332.065,52.594 327.183,54.347 321.428,54.347L308.444,54.347L308.444,15.819L321.428,15.819C327.183,15.819 332.065,17.569 336.071,21.073ZM329.188,43.385C331.542,41.434 332.719,38.667 332.719,35.082C332.719,31.499 331.541,28.732 329.188,26.779C326.832,24.828 323.883,23.85 320.339,23.85L317.442,23.85L317.442,46.314L320.339,46.314C323.883,46.313 326.832,45.338 329.188,43.385Z" style="fill:white;fill-rule:nonzero;"/>
        <path d="M371.67,54.347L347.514,54.347L347.514,15.819L369.979,15.819L369.979,23.488L356.874,23.488L356.874,31.157L367.563,31.157L367.563,38.947L356.874,38.947L356.874,46.677L371.671,46.677L371.671,54.347L371.67,54.347Z" style="fill:white;fill-rule:nonzero;"/>
        <path d="M409.352,54.347L398.903,54.347L388.517,39.188L385.197,39.188L385.197,54.347L376.199,54.347L376.199,15.819L390.57,15.819C393.991,15.819 396.921,16.885 399.358,19.018C401.794,21.154 403.009,23.97 403.009,27.474C403.009,29.646 402.446,31.6 401.319,33.332C400.192,35.062 398.784,36.33 397.092,37.136L409.352,54.347ZM394.013,27.474C394.013,26.105 393.538,25.049 392.592,24.302C391.647,23.557 390.509,23.187 389.182,23.187L385.197,23.187L385.197,31.822L389.182,31.822C390.509,31.822 391.647,31.451 392.592,30.704C393.539,29.96 394.013,28.882 394.013,27.474Z" style="fill:white;fill-rule:nonzero;"/>
    </g>
</svg>
