<svg width="275" height="190" xmlns="http://www.w3.org/2000/svg">

 <title/>
 <g>
  <title>background</title>
  <rect fill="none" id="canvas_background" height="192" width="277" y="-1" x="-1"/>
 </g>
 <g>
  <title>Layer 1</title>
  <path fill="#ffffff" id="svg_1" d="m213.884667,164.709875a51.75,51.75 0 0 0 10.34,-102.46a73.71,73.71 0 0 0 -131.81,-19a62.24,62.24 0 1 0 -19.18,121.44" class="cls-1"/>
  <path fill="#231815" id="svg_2" d="m213.884667,172.209875a59.9,59.9 0 0 0 58.79,-52.34c3.7,-30 -17,-58.47 -46.46,-64.86l5.24,5.24c-9.07,-28.39 -33.17,-50.81 -62.81,-56a82.4,82.4 0 0 0 -82.71,35.25l8.47,-3.45c-31.4,-9.69 -66.35,3.77 -82.26,32.77c-15.16,27.65 -9.62,63.37 13.66,84.79a70.91,70.91 0 0 0 47.42,18.61c9.66,0.11 9.66,-14.89 0,-15c-24.5,-0.27 -46.36,-16.6 -52.84,-40.4a55.22,55.22 0 0 1 25.59,-61.82c13.58,-7.83 29.54,-9.09 44.43,-4.49c3.34,1 6.63,-0.74 8.47,-3.45c14.66,-21.51 41.44,-33.14 67.17,-28.11a67.05,67.05 0 0 1 50.95,45.29a7.54,7.54 0 0 0 5.24,5.24c22.53,4.89 38.5,25.75 35.61,49c-2.74,22.09 -22,38.41 -44,38.7c-9.64,0.13 -9.67,15.13 0,15l0.04,0.03z" class="cls-2"/>
  <line fill="#2ea7e0" id="svg_3" y2="153.549875" y1="172.749875" x2="100.914667" x1="108.284667" class="cls-3"/>
  <path fill="#2ea7e0" id="svg_4" d="m115.514667,170.759875l-7.37,-19.21c-1.45,-3.78 -5,-6.39 -9.23,-5.24c-3.61,1 -6.7,5.42 -5.24,9.23l7.37,19.2c1.45,3.78 5,6.39 9.23,5.24c3.61,-1 6.7,-5.42 5.24,-9.23l0,0.01z" class="cls-3"/>
  <line fill="#2ea7e0" id="svg_5" y2="153.549875" y1="172.749875" x2="138.874667" x1="146.244667" class="cls-3"/>
  <path fill="#2ea7e0" id="svg_6" d="m153.474667,170.759875l-7.37,-19.21c-1.45,-3.78 -5,-6.39 -9.23,-5.24c-3.61,1 -6.7,5.42 -5.24,9.23l7.37,19.2c1.45,3.78 5,6.39 9.23,5.24c3.61,-1 6.7,-5.42 5.24,-9.23l0,0.01z" class="cls-3"/>
  <line fill="#2ea7e0" id="svg_7" y2="153.549875" y1="172.749875" x2="176.834667" x1="184.204667" class="cls-3"/>
  <path fill="#2ea7e0" id="svg_8" d="m191.434667,170.759875l-7.37,-19.21c-1.45,-3.78 -5,-6.39 -9.23,-5.24c-3.61,1 -6.7,5.42 -5.24,9.23l7.37,19.2c1.45,3.78 5,6.39 9.23,5.24c3.61,-1 6.7,-5.42 5.24,-9.23l0,0.01z" class="cls-3"/>
 </g>
</svg>