<svg width="275" height="230" xmlns="http://www.w3.org/2000/svg">

 <title/>
 <g>
  <title>background</title>
  <rect fill="none" id="canvas_background" height="232" width="277" y="-1" x="-1"/>
 </g>
 <g>
  <title>Layer 1</title>
  <path fill="#ffffff" id="svg_1" d="m212.784455,163.548035a51.75,51.75 0 0 0 10.34,-102.46a73.71,73.71 0 0 0 -131.81,-19a62.24,62.24 0 1 0 -19.18,121.44" class="cls-1"/>
  <path fill="#231815" id="svg_2" d="m212.784455,171.048035a59.9,59.9 0 0 0 58.79,-52.34c3.7,-30 -17,-58.47 -46.46,-64.86l5.24,5.24c-9.07,-28.39 -33.17,-50.81 -62.81,-56a82.4,82.4 0 0 0 -82.71,35.25l8.47,-3.45c-31.4,-9.69 -66.35,3.77 -82.26,32.77c-15.16,27.65 -9.62,63.37 13.66,84.79a70.91,70.91 0 0 0 47.42,18.61c9.66,0.11 9.66,-14.89 0,-15c-24.5,-0.27 -46.36,-16.6 -52.84,-40.4a55.22,55.22 0 0 1 25.6,-61.8c13.58,-7.83 29.54,-9.09 44.43,-4.49c3.34,1 6.63,-0.74 8.47,-3.45c14.64,-21.54 41.42,-33.14 67.15,-28.1a67.05,67.05 0 0 1 50.95,45.29a7.54,7.54 0 0 0 5.24,5.24c22.53,4.89 38.5,25.75 35.61,49c-2.74,22.09 -22,38.41 -44,38.7c-9.64,0.13 -9.67,15.13 0,15l0.05,0z" class="cls-2"/>
  <path fill="#2ea7e0" id="svg_3" d="m193.004455,183.768035l-4.64,-2.68l3.14,-1.83c8.34,-4.85 0.8,-17.82 -7.57,-13l-8.45,4.91c-0.66,0.38 -1.4,0.77 -2.18,1.18l-3,-1.73l0,-14.41l3,-1.74c0.76,0.4 1.51,0.79 2.18,1.18l8.45,4.91c8.36,4.86 15.92,-8.1 7.57,-13l-3.14,-1.83l3,-1.72l1.87,-1.08c6.75,-3.9 3.12,-13.11 -2.95,-14a6.53,6.53 0 0 0 -1.56,0a7.66,7.66 0 0 0 -3.07,1l-4.77,2.76q0,-1.8 0,-3.6c0,-0.23 0,-0.46 0,-0.68c-0.63,-7.9 -11.79,-8.67 -14.41,-2.28a7.67,7.67 0 0 0 -0.56,3l0,9.77c0,0.74 0,1.57 -0.07,2.42l0,0.1l-3.84,2.22l-6.19,-3.57c-1,-0.61 -2.24,-1.41 -3.51,-2.24c-0.64,-0.42 -1.31,-0.85 -2,-1.26l0,-4.1c0.76,-0.48 1.5,-0.95 2.18,-1.34l8.47,-4.86a8.2,8.2 0 0 0 1.45,-1.05c5.91,-5.39 -1.18,-16.4 -9,-11.9l-3.09,1.77l0,-5.23c0,-9.65 -15,-9.67 -15,0l0,5.32l-3.1,-1.81c-7.22,-4.14 -13.83,4.89 -10.17,10.55a7.43,7.43 0 0 0 2.6,2.41l8.47,4.86c0.68,0.39 1.42,0.86 2.18,1.34l0,4.25c-1.77,1.1 -3.45,2.28 -4.87,3.1l-6.71,3.88l-3.94,-2.28c0,-0.88 -0.07,-1.73 -0.07,-2.52l0,-9.77c0,-9.65 -15,-9.67 -15,0q0,1.8 0,3.6l-4.77,-2.76c-8.38,-4.83 -15.94,8.12 -7.57,13l4.84,2.8l-3.14,1.83c-8.34,4.85 -0.8,17.82 7.57,13l8.45,-4.91c0.66,-0.38 1.4,-0.77 2.18,-1.18l3.2,1.85l0,14.23l-3.2,1.85c-0.76,-0.4 -1.51,-0.79 -2.18,-1.18l-8.45,-4.91c-8.36,-4.86 -15.92,8.1 -7.57,13l3.14,1.83l-4.64,2.68c-8.36,4.83 -0.81,17.79 7.57,13l4.58,-2.64q0,1.8 0,3.6c0,9.65 15,9.67 15,0l0,-9.77c0,-0.77 0,-1.63 0.07,-2.52l2.36,-1.36l7.87,4.54c1.53,0.88 3.36,2.19 5.3,3.38l0,2.39c-0.76,0.48 -1.5,0.95 -2.18,1.34l-8.47,4.86c-8.37,4.8 -0.82,17.77 7.57,13l3.09,-1.77l0,5.55c0,9.65 15,9.67 15,0l0,-5.55l3.09,1.77c8.39,4.81 16,-8.14 7.57,-13l-8.47,-4.86c-0.68,-0.39 -1.42,-0.86 -2.18,-1.34l0,-2.31c1.85,-1.14 3.6,-2.38 5.07,-3.23l8.19,-4.73l2.27,1.31c0,0.88 0.07,1.73 0.07,2.52l0,9.77c0,9.65 15,9.67 15,0q0,-1.8 0,-3.6l4.58,2.64c8.29,4.65 15.85,-8.31 7.49,-13.14zm-50.12,-5.08l-0.1,-0.06l-5.66,-3.27l-1.84,-1.06l-4.82,-2.78l0,-14.34l0.74,-0.43l4.08,-2.36l3.42,-2l4.08,-2.36l0.1,-0.06l4.08,2.36l3.32,1.92l4.18,2.41l0.84,0.48l0,14.34l-5,2.9l-1.74,1l-5.68,3.31z" class="cls-3"/>
 </g>
</svg>