<svg width="280" height="240.00000000000003" xmlns="http://www.w3.org/2000/svg">

 <title/>
 <g>
  <title>background</title>
  <rect fill="none" id="canvas_background" height="242" width="282" y="-1" x="-1"/>
 </g>
 <g>
  <title>Layer 1</title>
  <path fill="#ffffff" id="svg_1" d="m212.783913,164.286165a51.75,51.75 0 0 0 10.34,-102.46a73.71,73.71 0 0 0 -131.81,-19a62.24,62.24 0 1 0 -19.18,121.44" class="cls-1"/>
  <path fill="#231815" id="svg_2" d="m212.783913,171.786165a59.9,59.9 0 0 0 58.79,-52.34c3.7,-30 -17,-58.47 -46.46,-64.86l5.24,5.24c-9.07,-28.39 -33.17,-50.81 -62.81,-56a82.4,82.4 0 0 0 -82.71,35.25l8.47,-3.45c-31.4,-9.69 -66.35,3.77 -82.26,32.77c-15.16,27.65 -9.62,63.37 13.66,84.79a70.91,70.91 0 0 0 47.42,18.61c9.66,0.11 9.66,-14.89 0,-15c-24.5,-0.27 -46.36,-16.6 -52.84,-40.4a55.22,55.22 0 0 1 25.59,-61.82c13.58,-7.83 29.54,-9.09 44.43,-4.49c3.34,1 6.63,-0.74 8.47,-3.45c14.64,-21.54 41.42,-33.14 67.15,-28.1a67.05,67.05 0 0 1 50.95,45.29a7.54,7.54 0 0 0 5.24,5.24c22.53,4.89 38.5,25.75 35.61,49c-2.74,22.09 -22,38.41 -44,38.7c-9.64,0.13 -9.67,15.13 0,15l0.06,0.02z" class="cls-2"/>
  <line fill="#2ea7e0" id="svg_3" y2="111.126165" y1="130.326165" x2="84.803913" x1="92.183913" class="cls-3"/>
  <path fill="#2ea7e0" id="svg_4" d="m99.413913,128.326165l-7.37,-19.2c-1.45,-3.78 -5,-6.39 -9.23,-5.24c-3.61,1 -6.7,5.42 -5.24,9.23l7.37,19.2c1.45,3.78 5,6.39 9.23,5.24c3.61,-1 6.7,-5.42 5.24,-9.23z" class="cls-3"/>
  <line fill="#2ea7e0" id="svg_5" y2="111.126165" y1="130.326165" x2="122.773913" x1="130.143913" class="cls-3"/>
  <path fill="#2ea7e0" id="svg_6" d="m137.373913,128.336165l-7.37,-19.2c-1.45,-3.78 -5,-6.39 -9.23,-5.24c-3.61,1 -6.7,5.42 -5.24,9.23l7.37,19.2c1.45,3.78 5,6.39 9.23,5.24c3.61,-1 6.7,-5.42 5.24,-9.23z" class="cls-3"/>
  <line fill="#2ea7e0" id="svg_7" y2="111.126165" y1="130.326165" x2="160.733913" x1="168.103913" class="cls-3"/>
  <path fill="#2ea7e0" id="svg_8" d="m175.333913,128.336165l-7.37,-19.2c-1.45,-3.78 -5,-6.39 -9.23,-5.24c-3.61,1 -6.7,5.42 -5.24,9.23l7.37,19.2c1.45,3.78 5,6.39 9.23,5.24c3.61,-1 6.7,-5.42 5.24,-9.23z" class="cls-3"/>
  <line fill="#2ea7e0" id="svg_9" y2="154.006165" y1="173.206165" x2="101.273913" x1="108.653913" class="cls-3"/>
  <path fill="#2ea7e0" id="svg_10" d="m115.883913,171.216165l-7.38,-19.21c-1.45,-3.78 -5,-6.39 -9.23,-5.24c-3.61,1 -6.7,5.42 -5.24,9.23l7.37,19.2c1.45,3.78 5,6.39 9.23,5.24c3.61,-1 6.7,-5.42 5.24,-9.23l0.01,0.01z" class="cls-3"/>
  <line fill="#2ea7e0" id="svg_11" y2="154.006165" y1="173.206165" x2="139.233913" x1="146.613913" class="cls-3"/>
  <path fill="#2ea7e0" id="svg_12" d="m153.843913,171.216165l-7.37,-19.21c-1.45,-3.78 -5,-6.39 -9.23,-5.24c-3.61,1 -6.7,5.42 -5.24,9.23l7.37,19.2c1.45,3.78 5,6.39 9.23,5.24c3.61,-1 6.7,-5.42 5.24,-9.23l0,0.01z" class="cls-3"/>
  <line fill="#2ea7e0" id="svg_13" y2="154.006165" y1="173.206165" x2="177.193913" x1="184.573913" class="cls-3"/>
  <path fill="#2ea7e0" id="svg_14" d="m191.803913,171.216165l-7.37,-19.21c-1.45,-3.78 -5,-6.39 -9.23,-5.24c-3.61,1 -6.7,5.42 -5.24,9.23l7.37,19.2c1.45,3.78 5,6.39 9.23,5.24c3.61,-1 6.7,-5.42 5.24,-9.23l0,0.01z" class="cls-3"/>
  <line fill="#2ea7e0" id="svg_15" y2="196.886165" y1="216.086165" x2="117.743913" x1="125.113913" class="cls-3"/>
  <path fill="#2ea7e0" id="svg_16" d="m132.353913,214.096165l-7.37,-19.2c-1.45,-3.78 -5,-6.39 -9.23,-5.24c-3.61,1 -6.7,5.42 -5.24,9.23l7.37,19.2c1.45,3.78 5,6.39 9.23,5.24c3.61,-1 6.7,-5.42 5.24,-9.23z" class="cls-3"/>
  <line fill="#2ea7e0" id="svg_17" y2="196.886165" y1="216.086165" x2="155.703913" x1="163.073913" class="cls-3"/>
  <path fill="#2ea7e0" id="svg_18" d="m170.313913,214.096165l-7.37,-19.2c-1.45,-3.78 -5,-6.39 -9.23,-5.24c-3.61,1 -6.7,5.42 -5.24,9.23l7.37,19.2c1.45,3.78 5,6.39 9.23,5.24c3.61,-1 6.7,-5.42 5.24,-9.23z" class="cls-3"/>
  <line fill="#2ea7e0" id="svg_19" y2="196.886165" y1="216.086165" x2="193.663913" x1="201.043913" class="cls-3"/>
  <path fill="#2ea7e0" id="svg_20" d="m208.273913,214.096165l-7.37,-19.2c-1.45,-3.78 -5,-6.39 -9.23,-5.24c-3.61,1 -6.7,5.42 -5.24,9.23l7.37,19.2c1.45,3.78 5,6.39 9.23,5.24c3.61,-1 6.7,-5.42 5.24,-9.23z" class="cls-3"/>
 </g>
</svg>