<svg width="350" height="400" xmlns="http://www.w3.org/2000/svg">

 <title/>
 <g>
  <title>background</title>
  <rect fill="none" id="canvas_background" height="402" width="352" y="-1" x="-1"/>
 </g>
 <g>
  <title>Layer 1</title>
  <path fill="#dcdddd" id="svg_1" d="m252.48127,174.932697a67.93,67.93 0 0 1 8.76,5.72a66.91,66.91 0 0 1 22.91,32.59a7.52,7.52 0 0 0 5.24,5.24c22.53,4.89 38.5,25.75 35.6,49c-2.74,22.09 -22,38.41 -43.95,38.7c-4.78,0.07 -7.2,3.78 -7.24,7.5l-25.29,0l4.78,-4.82l11.94,-12c4.57,-4.6 1.21,-12.8 -5.31,-12.8l-18,0l12.06,-18c3.23,-4.82 -1.06,-11.29 -6.48,-11.29c-12.94,0 -25.94,-0.38 -38.9,-0.16c-2.27,0 -4.55,0.08 -6.82,0.16c-4.63,0.16 -7.06,2.82 -9.07,6.11c-1,1.58 -1.86,3.31 -2.84,5l-14.89,25.41l-10.81,18.45a7.2,7.2 0 0 0 -1,4l-15.54,0c0,-3.72 -2.44,-7.44 -7.24,-7.5c-24.5,-0.27 -46.36,-16.6 -52.84,-40.4a54.66,54.66 0 0 1 3,-36.61a55.56,55.56 0 0 1 8.47,-13.42a54.19,54.19 0 0 1 14.14,-11.78c13.59,-7.83 29.55,-9.09 44.44,-4.5c3.34,1 6.62,-0.73 8.47,-3.44c14.64,-21.54 41.42,-33.14 67.15,-28.1a67.43,67.43 0 0 1 13.82,4.3c0.87,0.38 1.73,0.77 2.57,1.19s1.92,0.93 2.87,1.45z" class="cls-1"/>
  <path fill="#231815" id="svg_2" d="m156.59127,183.722697a82.25,82.25 0 0 1 79.25,-30.49a77.68,77.68 0 0 1 10.36,2.59a81.11,81.11 0 0 1 0.89,8.29a73.74,73.74 0 0 0 -83.52,22.76l-2,-1.83c-1.65,-0.51 -3.32,-0.94 -4.98,-1.32z" class="cls-2"/>
  <path fill="#231815" id="svg_3" d="m298.90127,82.262697c8.38,-4.85 15.94,8.15 7.57,12.95l-29.14,16.83c-8.39,4.84 -15.93,-8.13 -7.58,-13l29.15,-16.78z" class="cls-2"/>
  <path fill="#231815" id="svg_4" d="m99.00127,215.782697a55.56,55.56 0 0 0 -8.47,13.42q-2.72,-3.29 -5.14,-6.84a62.33,62.33 0 0 1 9.31,-13.13a75.29,75.29 0 0 0 4.3,6.55z" class="cls-2"/>
  <path fill="#231815" id="svg_5" d="m61.07127,99.092697c8.37,4.83 0.8,17.79 -7.57,13l-29.15,-16.88c-8.36,-4.83 -0.8,-17.78 7.57,-12.95l29.15,16.83z" class="cls-2"/>
  <path fill="#231815" id="svg_6" d="m261.41127,171.412697a7.37,7.37 0 0 0 0.76,-2.89c0,1.11 -0.06,2.22 -0.11,3.32l-0.65,-0.43z" class="cls-2"/>
  <path fill="#231815" id="svg_7" d="m323.92127,160.492697c9.67,0 9.65,15 0,15l-33.65,0c-9.67,0 -9.65,-15 0,-15l33.65,0z" class="cls-2"/>
  <path fill="#231815" id="svg_8" d="m40.56127,160.492697c9.66,0 9.65,15 0,15l-33.66,0c-9.67,0 -9.65,-15 0,-15l33.66,0z" class="cls-2"/>
  <path fill="#231815" id="svg_9" d="m261.24127,180.652697c0.41,-2.89 0.68,-5.82 0.82,-8.77a73.9,73.9 0 0 1 29.32,39.37a51.75,51.75 0 0 1 -10.34,102.46l-7.2,0c0,-3.72 2.46,-7.43 7.24,-7.5c22,-0.29 41.21,-16.61 43.95,-38.7c2.9,-23.28 -13.07,-44.14 -35.6,-49a7.52,7.52 0 0 1 -5.24,-5.24a66.91,66.91 0 0 0 -22.95,-32.62z" class="cls-2"/>
  <path fill="#231815" id="svg_10" d="m248.02127,164.492697c3.1,-5.82 13.72,-4.84 14.15,2.94c0,0.18 0,0.37 0,0.56l0,0.07c0,0.14 0,0.28 0,0.42l0,0.08a7.37,7.37 0 0 1 -0.76,2.89a73,73 0 0 0 -13.39,-6.96z" class="cls-2"/>
  <path fill="#231815" id="svg_11" d="m247.05127,164.112697l1,0.38a7.48,7.48 0 0 0 -0.84,3.5c-0.04,-1.3 -0.09,-2.58 -0.16,-3.88z" class="cls-2"/>
  <path fill="#231815" id="svg_12" d="m262.17127,168.482697c0,-0.14 0,-0.28 0,-0.42c0.01,0.14 0.01,0.28 0,0.42z" class="cls-2"/>
  <path fill="#231815" id="svg_13" d="m109.46127,56.082697c4.84,8.38 -8.13,15.93 -13,7.57l-16.78,-29.15c-4.84,-8.38 8.16,-15.92 12.95,-7.57l16.83,29.15z" class="cls-2"/>
  <path fill="#231815" id="svg_14" d="m262.17127,167.412697c-0.43,-7.78 -11.05,-8.76 -14.15,-2.94l-1,-0.38a81.11,81.11 0 0 0 -0.89,-8.29a78.41,78.41 0 0 1 15.84,7.2c0.11,1.48 0.17,2.96 0.2,4.41z" class="cls-2"/>
  <path fill="#231815" id="svg_15" d="m198.14127,76.932697a97.94,97.94 0 0 1 63.86,86.09a78.41,78.41 0 0 0 -15.84,-7.2a82.66,82.66 0 0 0 -64.92,-68.08c-33.28,-6.75 -68.22,8.91 -85.76,37.86a83,83 0 0 0 -4.39,76.62a68.43,68.43 0 0 0 -10.25,12.88c-19.27,-34.49 -15,-78.16 10,-108.75c25.4,-31.05 69.61,-43.24 107.3,-29.42z" class="cls-2"/>
  <path fill="#231815" id="svg_16" d="m332.79127,261.962697a51.77,51.77 0 0 0 -41.41,-50.71a73.9,73.9 0 0 0 -29.32,-39.37c0.05,-1.1 0.1,-2.21 0.11,-3.32l0,-0.08c0,-0.14 0,-0.28 0,-0.42l0,-0.07c0,-0.19 0,-0.38 0,-0.56c0,-1.47 -0.09,-2.95 -0.17,-4.41a83.62,83.62 0 0 1 35.1,42c-1.23,-0.35 -2.47,-0.68 -3.73,-1l5.24,5.24c-0.46,-1.45 -1,-2.88 -1.51,-4.29c27.43,7.88 46.27,35.15 42.73,63.9a59.9,59.9 0 0 1 -58.79,52.34c-4.88,0.07 -7.29,-3.71 -7.24,-7.5l7.24,0a51.75,51.75 0 0 0 51.75,-51.75z" class="cls-2"/>
  <path fill="#f8b62d" id="svg_17" d="m181.24127,87.742697a82.66,82.66 0 0 1 64.92,68.08a77.68,77.68 0 0 0 -10.32,-2.59a82.25,82.25 0 0 0 -79.21,30.49a71.07,71.07 0 0 0 -65.5,18.5a83,83 0 0 1 4.39,-76.62c17.5,-28.95 52.44,-44.61 85.72,-37.86z" class="cls-3"/>
  <path fill="#231815" id="svg_18" d="m297.10127,204.972697c0.54,1.41 1,2.84 1.51,4.29l-5.24,-5.24c1.26,0.27 2.47,0.6 3.73,0.95z" class="cls-2"/>
  <path fill="#231815" id="svg_19" d="m248.02127,164.492697a73,73 0 0 1 13.39,7c-1.63,3.23 -5.6,4.39 -8.93,3.48c-1,-0.52 -1.91,-1 -2.89,-1.48a7,7 0 0 1 -2.41,-5.46a7.48,7.48 0 0 1 0.84,-3.54z" class="cls-2"/>
  <path fill="#231815" id="svg_20" d="m252.48127,174.932697c3.33,0.91 7.3,-0.25 8.93,-3.48l0.65,0.43c-0.14,2.95 -0.41,5.88 -0.82,8.77a67.93,67.93 0 0 0 -8.76,-5.72z" class="cls-2"/>
  <path fill="#231815" id="svg_21" d="m247.18127,167.992697a7,7 0 0 0 2.41,5.46c-0.84,-0.42 -1.7,-0.81 -2.57,-1.19c0.08,-1.42 0.15,-2.85 0.16,-4.27z" class="cls-2"/>
  <path fill="#231815" id="svg_22" d="m156.59127,183.722697c1.66,0.38 3.33,0.81 5,1.32l-8.47,3.45c1.09,-1.64 2.26,-3.23 3.47,-4.77z" class="cls-2"/>
  <path fill="#231815" id="svg_23" d="m91.09127,202.222697a71.07,71.07 0 0 1 65.5,-18.5c-1.21,1.54 -2.38,3.13 -3.49,4.77l-0.42,2a62.27,62.27 0 0 0 -58,18.77q-1.96,-3.45 -3.59,-7.04z" class="cls-2"/>
  <path fill="#231815" id="svg_24" d="m238.19127,26.932697c4.83,-8.36 17.79,-0.8 12.95,7.57l-16.82,29.15c-4.83,8.37 -17.79,0.8 -13,-7.57l16.87,-29.15z" class="cls-2"/>
  <path fill="#231815" id="svg_25" d="m82.53127,217.962697c0.91,1.5 1.87,3 2.86,4.4a62.24,62.24 0 0 0 55,91.35l7.24,0c0,3.78 -2.38,7.56 -7.24,7.5a70.88,70.88 0 0 1 -47.42,-18.61c-23.29,-21.42 -28.82,-57.14 -13.66,-84.79c0.5,-0.92 1,-1.82 1.57,-2.71c0.53,0.96 1.08,1.92 1.65,2.86z" class="cls-2"/>
  <path fill="#231815" id="svg_26" d="m85.39127,222.362697q2.43,3.56 5.14,6.84a54.66,54.66 0 0 0 -3,36.61c6.48,23.8 28.34,40.13 52.84,40.4c4.8,0.06 7.21,3.78 7.24,7.5l-7.24,0a62.24,62.24 0 0 1 -55,-91.35l0.02,0z" class="cls-2"/>
  <path fill="#231815" id="svg_27" d="m113.14127,204.002697a54.19,54.19 0 0 0 -14.14,11.78a75.29,75.29 0 0 1 -4.3,-6.55a62.27,62.27 0 0 1 58,-18.77l0,0a60.56,60.56 0 0 1 6.89,1.8q1.86,-2.79 4,-5.4a73.74,73.74 0 0 1 83.52,-22.76c0.07,1.29 0.12,2.58 0.13,3.88s-0.08,2.85 -0.16,4.27a67.43,67.43 0 0 0 -13.82,-4.3c-25.73,-5 -52.51,6.56 -67.15,28.1c-1.85,2.71 -5.13,4.47 -8.47,3.44c-14.95,-4.58 -30.91,-3.32 -44.5,4.51z" class="cls-2"/>
  <path fill="#231815" id="svg_28" d="m172.91127,9.482697l0,33.66c0,9.67 -15,9.65 -15,0l0,-33.66c0,-9.66 15,-9.65 15,0z" class="cls-2"/>
  <path fill="#231815" id="svg_29" d="m53.50127,223.952697c8.38,-4.85 15.93,8.12 7.57,13l-29.15,16.82c-8.38,4.84 -15.92,-8.12 -7.57,-12.95l29.15,-16.87z" class="cls-2"/>
  <path fill="#231815" id="svg_30" d="m91.09127,202.222697q1.64,3.58 3.61,7a62.33,62.33 0 0 0 -9.31,13.13c-1,-1.44 -1.95,-2.9 -2.86,-4.4c-0.57,-0.94 -1.12,-1.9 -1.65,-2.86a68.43,68.43 0 0 1 10.21,-12.87z" class="cls-2"/>
  <path fill="#231815" id="svg_31" d="m161.57127,185.042697l2,1.83q-2.1,2.61 -4,5.4a60.56,60.56 0 0 0 -6.89,-1.8l0,0l0.42,-2l8.47,-3.43z" class="cls-2"/>
  <path fill="#faee00" id="svg_32" d="m227.38127,313.712697l-35.48,35.77l15.86,-32.19a8.36,8.36 0 0 0 0.85,-3.58l18.77,0z" class="cls-4"/>
  <path fill="#231815" id="svg_33" d="m248.51127,313.712697l-77.54,78.18a6.17,6.17 0 0 1 -6.86,2.89c-4.79,-0.8 -8.68,-6.63 -5.58,-11.4l30.72,-62.37l-18.61,0a7.58,7.58 0 0 1 -7.46,-7.3l45.43,0a8.36,8.36 0 0 1 -0.85,3.58l-15.86,32.19l35.48,-35.77l21.13,0z" class="cls-2"/>
  <path fill="#faee00" id="svg_34" d="m241.92127,299.052697q-7.26,7.33 -14.54,14.66l-18.77,0a7.3,7.3 0 0 0 -7.33,-7.7l-17.55,0l21.24,-36.25l28.5,0l-12.07,18c-3.22,4.82 1.06,11.29 6.48,11.29l14.04,0z" class="cls-4"/>
  <path fill="#231815" id="svg_35" d="m259.92127,284.052697c6.52,0 9.88,8.2 5.31,12.8l-11.94,12l-4.78,4.82l-21.13,0q7.28,-7.34 14.54,-14.66l-14.08,0c-5.42,0 -9.7,-6.47 -6.48,-11.29l12.07,-18l-28.5,0l-21.2,36.29l17.55,0a7.3,7.3 0 0 1 7.33,7.7l-45.43,0a7.2,7.2 0 0 1 1,-4l10.81,-18.45l14.85,-25.4c1,-1.68 1.86,-3.41 2.84,-5c2,-3.29 4.44,-5.95 9.07,-6.11c2.27,-0.08 4.55,-0.13 6.82,-0.16c13,-0.22 26,0.16 38.9,0.16c5.42,0 9.71,6.47 6.48,11.29l-12.06,18l18.03,0.01z" class="cls-2"/>
  <path stroke-miterlimit="10" stroke="#231815" fill="none" id="svg_36" d="m262.00127,163.022697a97.94,97.94 0 0 0 -63.86,-86.09c-37.69,-13.82 -81.9,-1.63 -107.27,29.42c-25,30.59 -29.26,74.26 -10,108.75" class="cls-5"/>
  <path stroke-miterlimit="10" stroke="#231815" fill="none" id="svg_37" d="m91.09127,202.222697a83,83 0 0 1 4.39,-76.62c17.54,-29 52.48,-44.61 85.76,-37.86a82.66,82.66 0 0 1 64.92,68.08" class="cls-5"/>
  <path stroke-miterlimit="10" stroke="#231815" fill="none" id="svg_38" d="m172.91127,43.142697l0,-33.66c0,-9.65 -15,-9.66 -15,0l0,33.66c0,9.65 15,9.67 15,0z" class="cls-5"/>
  <line stroke-miterlimit="10" stroke="#231815" fill="none" id="svg_39" y2="43.142697" y1="9.482697" x2="165.41127" x1="165.41127" class="cls-5"/>
  <path stroke-miterlimit="10" stroke="#231815" fill="none" id="svg_40" d="m96.51127,63.652697c4.82,8.36 17.79,0.81 13,-7.57l-16.88,-29.15c-4.82,-8.35 -17.79,-0.81 -12.95,7.57l16.83,29.15z" class="cls-5"/>
  <line stroke-miterlimit="10" stroke="#231815" fill="none" id="svg_41" y2="30.722697" y1="59.862697" x2="86.16127" x1="102.98127" class="cls-5"/>
  <path stroke-miterlimit="10" stroke="#231815" fill="none" id="svg_42" d="m24.35127,95.212697l29.15,16.83c8.37,4.84 15.94,-8.12 7.57,-13l-29.15,-16.83c-8.37,-4.8 -15.93,8.2 -7.57,13z" class="cls-5"/>
  <line stroke-miterlimit="10" stroke="#231815" fill="none" id="svg_43" y2="105.562697" y1="88.742697" x2="57.28127" x1="28.14127" class="cls-5"/>
  <path stroke-miterlimit="10" stroke="#231815" fill="none" id="svg_44" d="m40.56127,175.492697c9.65,0 9.66,-15 0,-15l-33.66,0c-9.65,0 -9.67,15 0,15l33.66,0z" class="cls-5"/>
  <line stroke-miterlimit="10" stroke="#231815" fill="none" id="svg_45" y2="167.992697" y1="167.992697" x2="40.56127" x1="6.90127" class="cls-5"/>
  <path stroke-miterlimit="10" stroke="#231815" fill="none" id="svg_46" d="m31.92127,253.722697l29.15,-16.82c8.36,-4.83 0.81,-17.8 -7.57,-13l-29.15,16.82c-8.35,4.88 -0.81,17.84 7.57,13z" class="cls-5"/>
  <line stroke-miterlimit="10" stroke="#231815" fill="none" id="svg_47" y2="230.422697" y1="247.252697" x2="57.28127" x1="28.14127" class="cls-5"/>
  <path stroke-miterlimit="10" stroke="#231815" fill="none" id="svg_48" d="m290.27127,175.492697l33.65,0c9.65,0 9.67,-15 0,-15l-33.65,0c-9.65,0 -9.67,15 0,15z" class="cls-5"/>
  <line stroke-miterlimit="10" stroke="#231815" fill="none" id="svg_49" y2="167.992697" y1="167.992697" x2="290.27127" x1="323.92127" class="cls-5"/>
  <path stroke-miterlimit="10" stroke="#231815" fill="none" id="svg_50" d="m277.33127,112.042697l29.14,-16.83c8.36,-4.82 0.81,-17.79 -7.57,-12.95l-29.15,16.83c-8.35,4.82 -0.81,17.79 7.58,12.95z" class="cls-5"/>
  <line stroke-miterlimit="10" stroke="#231815" fill="none" id="svg_51" y2="88.742697" y1="105.562697" x2="302.69127" x1="273.54127" class="cls-5"/>
  <path stroke-miterlimit="10" stroke="#231815" fill="none" id="svg_52" d="m234.32127,63.652697l16.82,-29.15c4.84,-8.37 -8.12,-15.93 -12.95,-7.57l-16.83,29.15c-4.83,8.33 8.13,15.94 12.96,7.57z" class="cls-5"/>
  <line stroke-miterlimit="10" stroke="#231815" fill="none" id="svg_53" y2="30.722697" y1="59.862697" x2="244.67127" x1="227.84127" class="cls-5"/>
  <path stroke-miterlimit="10" stroke="#231815" fill="none" id="svg_54" d="m80.84127,215.102697c-0.54,0.89 -1.07,1.79 -1.57,2.71c-15.16,27.65 -9.63,63.37 13.66,84.79a70.88,70.88 0 0 0 47.42,18.61c4.86,0.06 7.27,-3.72 7.24,-7.5" class="cls-5"/>
  <path stroke-miterlimit="10" stroke="#231815" fill="none" id="svg_55" d="m156.59127,183.722697a71.07,71.07 0 0 0 -65.5,18.5" class="cls-5"/>
  <path stroke-miterlimit="10" stroke="#231815" fill="none" id="svg_56" d="m246.16127,155.822697a77.68,77.68 0 0 0 -10.32,-2.59a82.25,82.25 0 0 0 -79.21,30.49" class="cls-5"/>
  <path stroke-miterlimit="10" stroke="#231815" fill="none" id="svg_57" d="m273.84127,313.712697c-0.05,3.79 2.36,7.57 7.24,7.5a59.9,59.9 0 0 0 58.76,-52.34c3.54,-28.75 -15.3,-56 -42.73,-63.9" class="cls-5"/>
  <path stroke-miterlimit="10" stroke="#231815" fill="none" id="svg_58" d="m297.10127,204.972697a83.62,83.62 0 0 0 -35.1,-42" class="cls-5"/>
  <path stroke-miterlimit="10" stroke="#231815" fill="none" id="svg_59" d="m297.10127,204.972697c0.54,1.41 1,2.84 1.51,4.29l-5.24,-5.24c1.26,0.27 2.47,0.6 3.73,0.95z" class="cls-5"/>
  <path stroke-miterlimit="10" stroke="#231815" fill="none" id="svg_60" d="m161.57127,185.042697c-1.65,-0.51 -3.32,-0.94 -5,-1.32c-1.21,1.54 -2.38,3.13 -3.49,4.77l8.49,-3.45z" class="cls-5"/>
  <path stroke-miterlimit="10" stroke="#231815" fill="none" id="svg_61" d="m262.17127,167.412697c0,-1.47 -0.09,-2.95 -0.17,-4.41a78.41,78.41 0 0 0 -15.84,-7.2a81.11,81.11 0 0 1 0.89,8.29" class="cls-5"/>
  <path stroke-miterlimit="10" stroke="#231815" fill="none" id="svg_62" d="m248.02127,164.492697c3.1,-5.82 13.72,-4.84 14.15,2.94" class="cls-5"/>
  <path stroke-miterlimit="10" stroke="#231815" fill="none" id="svg_63" d="m94.70127,209.232697q-2,-3.42 -3.61,-7a68.43,68.43 0 0 0 -10.25,12.87c0.53,1 1.08,1.92 1.65,2.86c0.91,1.5 1.87,3 2.86,4.4" class="cls-5"/>
  <path stroke-miterlimit="10" stroke="#231815" fill="none" id="svg_64" d="m262.17127,168.562697a7.37,7.37 0 0 1 -0.76,2.89" class="cls-5"/>
  <path stroke-miterlimit="10" stroke="#231815" fill="none" id="svg_65" d="m262.17127,167.412697c0,0.18 0,0.37 0,0.56l0,0.07c0,0.14 0,0.28 0,0.42" class="cls-5"/>
  <path stroke-miterlimit="10" stroke="#231815" fill="none" id="svg_66" d="m262.17127,168.482697c0,-0.14 0,-0.28 0,-0.42" class="cls-5"/>
  <path stroke-miterlimit="10" stroke="#231815" fill="none" id="svg_67" d="m262.17127,168.482697l0,0.08" class="cls-5"/>
  <path stroke-miterlimit="10" stroke="#231815" fill="none" id="svg_68" d="m262.06127,171.882697c0.05,-1.1 0.1,-2.21 0.11,-3.32" class="cls-5"/>
  <path stroke-miterlimit="10" stroke="#231815" fill="none" id="svg_69" d="m261.24127,180.652697a66.91,66.91 0 0 1 22.91,32.59a7.52,7.52 0 0 0 5.24,5.24c22.53,4.89 38.5,25.75 35.6,49c-2.74,22.09 -22,38.41 -43.95,38.7c-4.78,0.07 -7.2,3.78 -7.24,7.5l7.24,0a51.75,51.75 0 0 0 10.34,-102.46a73.9,73.9 0 0 0 -29.32,-39.37" class="cls-5"/>
  <path stroke-miterlimit="10" stroke="#231815" fill="none" id="svg_70" d="m247.05127,164.112697a73.74,73.74 0 0 0 -83.52,22.76q-2.1,2.61 -4,5.4a60.56,60.56 0 0 0 -6.89,-1.8l0,0a62.27,62.27 0 0 0 -58,18.77" class="cls-5"/>
  <path stroke-miterlimit="10" stroke="#231815" fill="none" id="svg_71" d="m99.00127,215.782697a54.19,54.19 0 0 1 14.14,-11.78c13.59,-7.83 29.55,-9.09 44.44,-4.5c3.34,1 6.62,-0.73 8.47,-3.44c14.64,-21.54 41.42,-33.14 67.15,-28.1a67.43,67.43 0 0 1 13.82,4.3" class="cls-5"/>
  <path stroke-miterlimit="10" stroke="#231815" fill="none" id="svg_72" d="m85.39127,222.362697a62.24,62.24 0 0 0 55,91.35l7.24,0c0,-3.72 -2.44,-7.44 -7.24,-7.5c-24.5,-0.27 -46.36,-16.6 -52.84,-40.4a54.66,54.66 0 0 1 3,-36.61" class="cls-5"/>
  <path stroke-miterlimit="10" stroke="#231815" fill="none" id="svg_73" d="m261.41127,171.412697a73,73 0 0 0 -13.39,-7" class="cls-5"/>
  <path stroke-miterlimit="10" stroke="#231815" fill="none" id="svg_74" d="m249.59127,173.412697c1,0.47 1.94,1 2.89,1.48" class="cls-5"/>
  <path stroke-miterlimit="10" stroke="#231815" fill="none" id="svg_75" d="m94.70127,209.232697a62.33,62.33 0 0 0 -9.31,13.13q2.43,3.56 5.14,6.84a55.56,55.56 0 0 1 8.47,-13.42a75.29,75.29 0 0 1 -4.3,-6.55z" class="cls-5"/>
  <path stroke-miterlimit="10" stroke="#231815" fill="none" id="svg_76" d="m248.02127,164.492697l-1,-0.38c0.07,1.29 0.12,2.58 0.13,3.88a7.48,7.48 0 0 1 0.87,-3.5z" class="cls-5"/>
  <path stroke-miterlimit="10" stroke="#231815" fill="none" id="svg_77" d="m247.18127,167.992697c0,1.43 -0.08,2.85 -0.16,4.27c0.87,0.38 1.73,0.77 2.57,1.19a7,7 0 0 1 -2.41,-5.46z" class="cls-5"/>
  <path stroke-miterlimit="10" stroke="#231815" fill="none" id="svg_78" d="m252.48127,174.932697a67.93,67.93 0 0 1 8.76,5.72c0.41,-2.89 0.68,-5.82 0.82,-8.77l-0.65,-0.43c-1.63,3.23 -5.57,4.39 -8.93,3.48z" class="cls-5"/>
  <path stroke-miterlimit="10" stroke="#231815" fill="none" id="svg_79" d="m248.51127,313.712697l4.78,-4.82l11.94,-12c4.57,-4.6 1.21,-12.8 -5.31,-12.8l-18,0l12.06,-18c3.23,-4.82 -1.06,-11.29 -6.48,-11.29c-12.94,0 -25.94,-0.38 -38.9,-0.16c-2.27,0 -4.55,0.08 -6.82,0.16c-4.63,0.16 -7.06,2.82 -9.07,6.11c-1,1.58 -1.86,3.31 -2.84,5l-14.89,25.41l-10.81,18.45a7.2,7.2 0 0 0 -1,4a7.58,7.58 0 0 0 7.46,7.3l18.61,0l-30.71,62.34c-3.1,4.77 0.79,10.6 5.58,11.4a6.17,6.17 0 0 0 6.86,-2.89l77.54,-78.21z" class="cls-5"/>
  <path stroke-miterlimit="10" stroke="#231815" fill="none" id="svg_80" d="m227.38127,313.712697l-35.48,35.77l15.86,-32.19a8.36,8.36 0 0 0 0.85,-3.58a7.3,7.3 0 0 0 -7.33,-7.7l-17.55,0l21.24,-36.25l28.5,0l-12.07,18c-3.22,4.82 1.06,11.29 6.48,11.29l14,0q-7.22,7.36 -14.5,14.66z" class="cls-5"/>
 </g>
</svg>