<svg width="350" height="360" xmlns="http://www.w3.org/2000/svg">

 <title/>
 <g>
  <title>background</title>
  <rect fill="none" id="canvas_background" height="362" width="352" y="-1" x="-1"/>
 </g>
 <g>
  <title>Layer 1</title>
  <path fill="#dcdddd" id="svg_1" d="m291.415023,217.746607c22.53,4.88 38.5,25.74 35.61,49c-2.75,22.09 -22,38.41 -44,38.7c-4.78,0.06 -7.2,3.78 -7.24,7.5l-126.13,0c0,-3.72 -2.44,-7.45 -7.24,-7.5c-24.5,-0.27 -46.36,-16.6 -52.84,-40.4a54.66,54.66 0 0 1 3,-36.61a55.56,55.56 0 0 1 8.47,-13.42a54.11,54.11 0 0 1 14.15,-11.79c13.58,-7.83 29.54,-9.08 44.43,-4.49c3.34,1 6.63,-0.74 8.47,-3.45c14.64,-21.53 41.42,-33.13 67.15,-28.1a66.85,66.85 0 0 1 13.82,4.31c0.87,0.38 1.73,0.77 2.57,1.18s1.94,1 2.89,1.49a67.07,67.07 0 0 1 31.67,38.31a7.54,7.54 0 0 0 5.22,5.27zm-43,91.5c3.61,-1 6.7,-5.42 5.24,-9.22l-7.41,-19.2c-1.45,-3.78 -5,-6.39 -9.22,-5.24c-3.62,1 -6.7,5.42 -5.24,9.22l7.37,19.2c1.45,3.82 5.05,6.39 9.23,5.24l0.03,0zm-38,0c3.61,-1 6.7,-5.42 5.24,-9.22l-7.37,-19.2c-1.45,-3.78 -5,-6.39 -9.22,-5.24c-3.62,1 -6.7,5.42 -5.24,9.22l7.37,19.2c1.45,3.82 5.05,6.39 9.23,5.24l-0.01,0zm-38,0c3.61,-1 6.69,-5.42 5.23,-9.22q-3.67,-9.6 -7.37,-19.2c-1.45,-3.78 -5,-6.39 -9.23,-5.24c-3.61,1 -6.69,5.42 -5.23,9.22q3.67,9.6 7.37,19.2c1.5,3.82 5.1,6.39 9.28,5.24l-0.05,0z" class="cls-1"/>
  <path fill="#231815" id="svg_2" d="m325.945023,159.756607c9.67,0 9.65,15 0,15l-33.65,0c-9.67,0 -9.65,-15 0,-15l33.65,0z" class="cls-2"/>
  <path fill="#231815" id="svg_3" d="m264.085023,171.146607a73.77,73.77 0 0 1 29.32,39.37a51.75,51.75 0 0 1 -10.34,102.46l-7.19,0c0,-3.72 2.46,-7.44 7.24,-7.5c22,-0.29 41.21,-16.61 44,-38.7c2.89,-23.29 -13.08,-44.15 -35.61,-49a7.54,7.54 0 0 1 -5.24,-5.24a66.86,66.86 0 0 0 -22.91,-32.59q0.52,-4.38 0.73,-8.8z" class="cls-2"/>
  <path fill="#231815" id="svg_4" d="m300.925023,81.526607c8.38,-4.84 15.93,8.13 7.57,13l-29.14,16.83c-8.39,4.84 -15.93,-8.13 -7.57,-12.95l29.14,-16.88z" class="cls-2"/>
  <path fill="#231815" id="svg_5" d="m299.125023,204.236607c27.43,7.88 46.27,35.14 42.73,63.9a59.9,59.9 0 0 1 -58.79,52.34c-4.88,0.06 -7.29,-3.72 -7.24,-7.5l7.24,0a51.75,51.75 0 0 0 10.34,-102.46a73.77,73.77 0 0 0 -29.32,-39.37c0.06,-1.1 0.1,-2.21 0.11,-3.32l0,-0.08c0,-0.14 0,-0.28 0,-0.42l0,-0.07c0,-0.17 0,-0.34 0,-0.51c0,-1.5 -0.09,-3 -0.17,-4.47a83.68,83.68 0 0 1 35.1,42c-1.23,-0.36 -2.46,-0.68 -3.73,-1l5.24,5.24c-0.46,-1.44 -0.97,-2.87 -1.51,-4.28z" class="cls-2"/>
  <path fill="#231815" id="svg_6" d="m299.125023,204.236607c0.54,1.41 1,2.84 1.51,4.28l-5.24,-5.24c1.27,0.28 2.48,0.6 3.73,0.96z" class="cls-2"/>
  <path fill="#2ea7e0" id="svg_7" d="m270.085023,342.906607c1.46,3.8 -1.62,8.23 -5.23,9.22c-4.18,1.15 -7.78,-1.45 -9.23,-5.23q-3.69,-9.6 -7.37,-19.21c-1.46,-3.8 1.62,-8.23 5.23,-9.22c4.18,-1.15 7.78,1.46 9.23,5.24q3.69,9.6 7.37,19.2z" class="cls-3"/>
  <path fill="#231815" id="svg_8" d="m264.195023,167.746607c0,-0.14 0,-0.28 0,-0.42c0.01,0.14 0.01,0.28 0,0.42z" class="cls-2"/>
  <path fill="#231815" id="svg_9" d="m263.435023,170.716607a7.37,7.37 0 0 0 0.76,-2.89c0,1.11 -0.05,2.22 -0.11,3.32c-0.21,-0.15 -0.43,-0.32 -0.65,-0.43z" class="cls-2"/>
  <path fill="#231815" id="svg_10" d="m263.435023,170.716607c-1.63,3.23 -5.6,4.39 -8.93,3.48c-1,-0.52 -1.91,-1 -2.89,-1.49a6.93,6.93 0 0 1 -2.41,-5.45a7.45,7.45 0 0 1 0.84,-3.5a72.34,72.34 0 0 1 13.39,6.96z" class="cls-2"/>
  <path fill="#231815" id="svg_11" d="m250.045023,163.756607c3.1,-5.84 13.76,-4.84 14.15,3c0,0.17 0,0.34 0,0.51l0,0.07c0,0.14 0,0.28 0,0.42l0,0.07a7.37,7.37 0 0 1 -0.76,2.89a72.34,72.34 0 0 0 -13.39,-6.96z" class="cls-2"/>
  <path fill="#231815" id="svg_12" d="m254.505023,174.196607c3.33,0.91 7.3,-0.25 8.93,-3.48c0.22,0.14 0.44,0.28 0.65,0.43q-0.21,4.43 -0.82,8.77a66.89,66.89 0 0 0 -8.76,-5.72z" class="cls-2"/>
  <path fill="#2ea7e0" id="svg_13" d="m253.625023,300.026607c1.46,3.8 -1.63,8.23 -5.24,9.22c-4.18,1.15 -7.78,-1.46 -9.23,-5.24l-7.37,-19.18c-1.46,-3.8 1.62,-8.23 5.24,-9.22c4.18,-1.15 7.77,1.46 9.22,5.24l7.38,19.18z" class="cls-3"/>
  <path fill="#231815" id="svg_14" d="m240.215023,26.196607c4.83,-8.37 17.79,-0.8 12.95,7.57l-16.82,29.15c-4.83,8.36 -17.79,0.8 -13,-7.57l16.87,-29.15z" class="cls-2"/>
  <path fill="#231815" id="svg_15" d="m249.075023,163.366607a81.22,81.22 0 0 0 -0.89,-8.28a78.37,78.37 0 0 1 15.84,7.19c0.08,1.48 0.15,3 0.17,4.47c-0.39,-7.83 -11.05,-8.83 -14.15,-3l-0.97,-0.38z" class="cls-2"/>
  <path fill="#231815" id="svg_16" d="m250.045023,163.756607a7.45,7.45 0 0 0 -0.84,3.5c0,-1.3 -0.06,-2.6 -0.13,-3.89l0.97,0.39z" class="cls-2"/>
  <path fill="#231815" id="svg_17" d="m249.205023,167.256607a6.93,6.93 0 0 0 2.41,5.45c-0.84,-0.41 -1.7,-0.8 -2.57,-1.18c0.09,-1.42 0.15,-2.84 0.16,-4.27z" class="cls-2"/>
  <path fill="#231815" id="svg_18" d="m142.415023,188.506607a62.17,62.17 0 0 1 12.29,1.22l0,0a60.56,60.56 0 0 1 6.89,1.8a73.78,73.78 0 0 1 87.48,-28.17c0.07,1.29 0.12,2.59 0.13,3.89s-0.07,2.85 -0.16,4.27a66.85,66.85 0 0 0 -13.82,-4.31c-25.73,-5 -52.51,6.57 -67.15,28.1c-1.84,2.71 -5.13,4.48 -8.47,3.45c-14.89,-4.59 -30.85,-3.34 -44.43,4.49a54.11,54.11 0 0 0 -14.15,11.79a72.94,72.94 0 0 1 -4.29,-6.55a62,62 0 0 1 45.68,-19.98z" class="cls-2"/>
  <path fill="#231815" id="svg_19" d="m222.985023,158.616607a73.63,73.63 0 0 0 -61.39,32.92a60.56,60.56 0 0 0 -6.89,-1.8l0,0l0.42,-2l8.47,-3.44c-1.65,-0.51 -3.31,-0.94 -5,-1.33a82.28,82.28 0 0 1 79.28,-30.47a76.17,76.17 0 0 1 10.36,2.59a81.22,81.22 0 0 1 0.89,8.28a73.53,73.53 0 0 0 -26.14,-4.75z" class="cls-2"/>
  <path fill="#2ea7e0" id="svg_20" d="m232.125023,342.906607c1.46,3.8 -1.62,8.23 -5.23,9.22c-4.18,1.15 -7.78,-1.45 -9.23,-5.23l-7.38,-19.21c-1.46,-3.8 1.63,-8.23 5.24,-9.22c4.18,-1.15 7.78,1.46 9.23,5.24q3.69,9.6 7.37,19.2z" class="cls-3"/>
  <path fill="#f8b62d" id="svg_21" d="m183.265023,87.006607a82.63,82.63 0 0 1 64.92,68.08a76.17,76.17 0 0 0 -10.31,-2.59a82.28,82.28 0 0 0 -79.21,30.48a71.08,71.08 0 0 0 -65.5,18.51a83.06,83.06 0 0 1 4.34,-76.66c17.54,-28.92 52.48,-44.57 85.76,-37.82z" class="cls-4"/>
  <path fill="#2ea7e0" id="svg_22" d="m215.665023,300.026607c1.46,3.8 -1.63,8.23 -5.24,9.22c-4.18,1.15 -7.78,-1.46 -9.23,-5.24l-7.32,-19.18c-1.46,-3.8 1.62,-8.23 5.24,-9.22c4.18,-1.15 7.77,1.46 9.22,5.24l7.33,19.18z" class="cls-3"/>
  <path fill="#2ea7e0" id="svg_23" d="m194.165023,342.906607c1.46,3.8 -1.62,8.23 -5.24,9.22c-4.18,1.15 -7.77,-1.45 -9.22,-5.23l-7.38,-19.2c-1.46,-3.81 1.63,-8.24 5.24,-9.23c4.18,-1.15 7.78,1.46 9.23,5.24l7.37,19.2z" class="cls-3"/>
  <path fill="#2ea7e0" id="svg_24" d="m177.695023,300.026607c1.46,3.8 -1.62,8.23 -5.23,9.22c-4.18,1.15 -7.78,-1.46 -9.23,-5.24q-3.69,-9.6 -7.37,-19.2c-1.46,-3.8 1.62,-8.23 5.23,-9.22c4.18,-1.15 7.78,1.46 9.23,5.24q3.69,9.6 7.37,19.2z" class="cls-3"/>
  <path fill="#231815" id="svg_25" d="m174.935023,8.746607l0,33.65c0,9.67 -15,9.66 -15,0l0,-33.65c0,-9.67 15,-9.65 15,0z" class="cls-2"/>
  <path fill="#231815" id="svg_26" d="m163.595023,184.306607l-8.47,3.44c1.11,-1.64 2.28,-3.23 3.49,-4.77c1.67,0.39 3.33,0.85 4.98,1.33z" class="cls-2"/>
  <path fill="#231815" id="svg_27" d="m93.115023,201.486607a71.08,71.08 0 0 1 65.5,-18.51c-1.21,1.54 -2.38,3.13 -3.49,4.77l-0.42,2a62.25,62.25 0 0 0 -58,18.77a78.73,78.73 0 0 1 -3.59,-7.03z" class="cls-2"/>
  <path fill="#231815" id="svg_28" d="m111.485023,55.346607c4.84,8.38 -8.13,15.92 -13,7.57l-16.83,-29.15c-4.78,-8.38 8.22,-15.94 13,-7.57l16.83,29.15z" class="cls-2"/>
  <path fill="#231815" id="svg_29" d="m80.185023,250.746607a62.23,62.23 0 0 0 62.23,62.23l7.24,0c0,3.78 -2.38,7.55 -7.24,7.5a70.94,70.94 0 0 1 -47.42,-18.65c-23.28,-21.41 -28.82,-57.13 -13.66,-84.78c0.5,-0.92 1,-1.82 1.57,-2.71c0.53,1 1.08,1.91 1.65,2.86c0.91,1.5 1.87,3 2.86,4.4a61.93,61.93 0 0 0 -7.23,29.15z" class="cls-2"/>
  <path fill="#231815" id="svg_30" d="m96.735023,208.496607a72.94,72.94 0 0 0 4.29,6.55a55.56,55.56 0 0 0 -8.47,13.42q-2.72,-3.28 -5.14,-6.84a62,62 0 0 1 9.32,-13.13z" class="cls-2"/>
  <path fill="#231815" id="svg_31" d="m264.025023,162.276607a78.37,78.37 0 0 0 -15.84,-7.19a82.63,82.63 0 0 0 -64.92,-68.08c-33.28,-6.75 -68.22,8.9 -85.76,37.85a83.06,83.06 0 0 0 -4.39,76.63a67.8,67.8 0 0 0 -10.24,12.88c-19.27,-34.5 -15,-78.17 10,-108.75c25.37,-31 69.58,-43.25 107.27,-29.43a98,98 0 0 1 63.88,86.09z" class="cls-2"/>
  <path fill="#231815" id="svg_32" d="m96.735023,208.496607a62,62 0 0 0 -9.32,13.13c-1,-1.44 -1.95,-2.9 -2.86,-4.4c-0.57,-0.95 -1.12,-1.9 -1.65,-2.86a67.8,67.8 0 0 1 10.21,-12.88a78.73,78.73 0 0 0 3.62,7.01z" class="cls-2"/>
  <path fill="#231815" id="svg_33" d="m142.415023,305.476607c4.8,0.05 7.21,3.78 7.24,7.5l-7.24,0a62.24,62.24 0 0 1 -55,-91.35q2.43,3.56 5.14,6.84a54.66,54.66 0 0 0 -3,36.61c6.5,23.8 28.32,40.13 52.86,40.4z" class="cls-2"/>
  <path fill="#231815" id="svg_34" d="m63.095023,98.356607c8.37,4.83 0.8,17.78 -7.57,12.95l-29.15,-16.83c-8.36,-4.83 -0.8,-17.79 7.57,-13l29.15,16.88z" class="cls-2"/>
  <path fill="#231815" id="svg_35" d="m55.525023,223.206607c8.38,-4.84 15.93,8.13 7.57,12.95l-29.15,16.83c-8.38,4.84 -15.92,-8.13 -7.57,-13l29.15,-16.78z" class="cls-2"/>
  <path fill="#231815" id="svg_36" d="m42.585023,159.756607c9.66,0 9.65,15 0,15l-33.66,0c-9.67,0 -9.65,-15 0,-15l33.66,0z" class="cls-2"/>
 </g>
</svg>