<svg width="350" height="380" xmlns="http://www.w3.org/2000/svg">

 <title/>
 <g>
  <title>background</title>
  <rect fill="none" id="canvas_background" height="382" width="352" y="-1" x="-1"/>
 </g>
 <g>
  <title>Layer 1</title>
  <path fill="#231815" id="svg_1" d="m176.596282,43.050889l0,-33.67c0,-9.65 -15,-9.67 -15,0l0,33.65c0,9.67 15,9.69 15,0.02zm-7.5,-33.67l0,0z" class="cls-1"/>
  <path fill="#231815" id="svg_2" d="m100.186282,63.570889c4.83,8.36 17.79,0.81 13,-7.57l-16.87,-29.15c-4.83,-8.36 -17.79,-0.81 -13,7.57l16.87,29.15zm-10.39,-32.94l0.04,0l-0.04,0z" class="cls-1"/>
  <path fill="#231815" id="svg_3" d="m10.586282,175.380889l33.65,0c9.65,0 9.67,-15 0,-15l-33.65,0c-9.66,0 -9.67,15 0,15zm33.65,-7.5l0,0z" class="cls-1"/>
  <path fill="#231815" id="svg_4" d="m237.996282,63.570889l16.83,-29.19c4.84,-8.37 -8.12,-15.94 -13,-7.57l-16.83,29.15c-4.79,8.42 8.17,15.97 13,7.61zm10.35,-32.93l-16.82,29.14l16.82,-29.14z" class="cls-1"/>
  <path fill="#ffffff" id="svg_5" d="m259.606282,313.620889l-17.36,0l0,-7.34l3,-1.73c0.77,0.4 1.51,0.79 2.18,1.18l8.45,4.91a7.42,7.42 0 0 0 3.73,1.07l0,1.91z" class="cls-2"/>
  <path fill="#ffffff" id="svg_6" d="m173.576282,310.640889l8.44,-4.91c0.66,-0.38 1.41,-0.77 2.19,-1.18l3.19,1.85l0,7.22l-17.56,0l0,-1.91a7.38,7.38 0 0 0 3.74,-1.07z" class="cls-2"/>
  <path fill="#ffffff" id="svg_7" d="m227.246282,312.080889l0,1.54l-24.85,0l0,-7.34l4.83,-2.78l2.58,-1.49l4.92,-2.84l0.1,-0.06l4.92,2.84l2.48,1.43q2.5,1.45 5,2.9l0.02,5.8z" class="cls-2"/>
  <path fill="#ffffff" id="svg_8" d="m293.066282,218.380889c22.53,4.89 38.5,25.75 35.61,49c-2.75,22.09 -22,38.41 -44,38.7c-4.78,0.07 -7.2,3.78 -7.24,7.5l-17.83,0l0,-1.91c6.57,0 10.91,-9.92 3.84,-14l-3.15,-1.82l4.85,-2.8c8.35,-4.82 0.81,-17.79 -7.57,-12.95l-4.78,2.75c0,-1.19 0,-2.39 0,-3.59c0,-9.65 -15,-9.67 -15,0l0,9.77c0,0.76 0,1.62 -0.07,2.52l-3,1.73l-7,-4.06c-1.58,-0.91 -3.49,-2.28 -5.49,-3.5l0,-3.13c0.76,-0.48 1.49,-0.95 2.18,-1.34l8.47,-4.87c8.37,-4.8 0.83,-17.76 -7.57,-12.95l-3.08,1.77l0,-5.32a7,7 0 0 0 -6.54,-7.19a7.12,7.12 0 0 0 -8.46,7.19l0,5.32l-3.09,-1.77c-8.39,-4.81 -15.95,8.15 -7.57,12.95l8.47,4.87c0.69,0.39 1.42,0.86 2.19,1.34l0,3.28c-1.78,1.11 -3.46,2.29 -4.87,3.11l-7.57,4.4l-3.1,-1.8c0,-0.87 -0.07,-1.73 -0.07,-2.51l0,-9.77c0,-9.65 -15,-9.67 -15,0c0,1.2 0,2.4 0,3.6l-4.77,-2.76c-8.38,-4.84 -15.94,8.12 -7.57,12.95l4.84,2.8l-3.15,1.82c-7.06,4.11 -2.74,14 3.84,14l0,1.91l-18.51,0c0,-3.72 -2.44,-7.44 -7.24,-7.5c-24.5,-0.27 -46.36,-16.59 -52.84,-40.4a54.63,54.63 0 0 1 3,-36.6a55.42,55.42 0 0 1 8.47,-13.43a54.08,54.08 0 0 1 14.15,-11.78c13.58,-7.83 29.54,-9.09 44.43,-4.5c3.34,1 6.63,-0.73 8.47,-3.44c14.64,-21.54 41.42,-33.14 67.15,-28.1a67.43,67.43 0 0 1 13.82,4.3c0.87,0.38 1.73,0.78 2.57,1.19s1.94,1 2.89,1.48a67.93,67.93 0 0 1 8.76,5.72a66.91,66.91 0 0 1 22.91,32.59a7.52,7.52 0 0 0 5.22,5.23z" class="cls-2"/>
  <path fill="#231815" id="svg_9" d="m327.596282,160.380889c9.67,0 9.65,15 0,15l-33.65,0c-9.67,0 -9.65,-15 0,-15l33.65,0z" class="cls-1"/>
  <path fill="#231815" id="svg_10" d="m265.736282,171.790889a73.85,73.85 0 0 1 29.32,39.37a51.75,51.75 0 0 1 -10.34,102.46l-7.19,0c0,-3.72 2.46,-7.43 7.24,-7.5c22,-0.29 41.21,-16.61 44,-38.7c2.89,-23.28 -13.08,-44.14 -35.61,-49a7.52,7.52 0 0 1 -5.24,-5.24a66.91,66.91 0 0 0 -22.91,-32.59c0.32,-2.92 0.59,-5.85 0.73,-8.8z" class="cls-1"/>
  <path fill="#231815" id="svg_11" d="m302.576282,82.170889c8.38,-4.84 15.93,8.13 7.57,13l-29.14,16.82c-8.39,4.84 -15.93,-8.12 -7.57,-12.95l29.14,-16.87z" class="cls-1"/>
  <path fill="#231815" id="svg_12" d="m302.286282,209.170889l-5.24,-5.24c1.27,0.27 2.5,0.6 3.73,0.95c0.54,1.42 1.05,2.84 1.51,4.29z" class="cls-1"/>
  <path fill="#231815" id="svg_13" d="m265.846282,168.480889c0,-0.19 0,-0.38 0,-0.58s0,-0.34 0,-0.51c0,-1.49 -0.09,-3 -0.17,-4.46a83.66,83.66 0 0 1 35.1,41.95c-1.23,-0.35 -2.46,-0.68 -3.73,-0.95l5.24,5.24c-0.46,-1.45 -1,-2.87 -1.51,-4.29c27.43,7.88 46.27,35.15 42.73,63.9a59.89,59.89 0 0 1 -58.79,52.34c-4.88,0.07 -7.29,-3.71 -7.24,-7.5l7.24,0a51.75,51.75 0 0 0 10.34,-102.46a73.85,73.85 0 0 0 -29.32,-39.37c0.06,-1.1 0.1,-2.2 0.11,-3.31z" class="cls-1"/>
  <path fill="#231815" id="svg_14" d="m265.086282,171.380889a7.32,7.32 0 0 0 0.76,-2.88c0,1.11 -0.05,2.21 -0.11,3.31l-0.65,-0.43z" class="cls-1"/>
  <path fill="#2ea7e0" id="svg_15" d="m257.576282,280.110889c8.38,-4.84 15.92,8.13 7.57,12.95l-4.85,2.8l3.15,1.82c7.07,4.11 2.73,14 -3.84,14a7.42,7.42 0 0 1 -3.73,-1.07l-8.45,-4.91c-0.67,-0.39 -1.41,-0.78 -2.18,-1.18l-3,1.73l0,7.34l-15,0l0,-7.31q-2.52,-1.44 -5,-2.9l-2.48,-1.43l-4.92,-2.84l-0.1,0.06l-4.92,2.84l-2.58,1.49l-4.83,2.78l0,7.34l-15,0l0,-7.24l-3.19,-1.85c-0.78,0.41 -1.53,0.8 -2.19,1.18l-8.44,4.91a7.38,7.38 0 0 1 -3.74,1.07c-6.58,0 -10.9,-9.92 -3.84,-14l3.15,-1.82l-4.84,-2.8c-8.37,-4.83 -0.81,-17.79 7.57,-12.95l4.77,2.76c0,-1.2 0,-2.4 0,-3.6c0,-9.67 15,-9.65 15,0l0,9.77c0,0.78 0,1.64 0.07,2.51l3.1,1.8l7.56,-4.36c1.41,-0.82 3.09,-2 4.87,-3.11l0,-3.28c-0.77,-0.48 -1.5,-0.95 -2.19,-1.34l-8.55,-4.89c-8.38,-4.8 -0.82,-17.76 7.57,-12.95l3.09,1.77l0,-5.32a7.12,7.12 0 0 1 8.46,-7.19a7,7 0 0 1 6.54,7.19l0,5.32l3.08,-1.77c8.4,-4.81 15.94,8.15 7.57,12.95l-8.47,4.87c-0.69,0.39 -1.42,0.86 -2.18,1.34l0,3.13c2,1.22 3.91,2.59 5.49,3.5l7,4.06l3,-1.73c0,-0.9 0.07,-1.76 0.07,-2.52l0,-9.77c0,-9.67 15,-9.65 15,0c0,1.2 0,2.4 0,3.59l4.83,-2.74z" class="cls-3"/>
  <path fill="#2ea7e0" id="svg_16" d="m264.946282,333.840889c8.37,4.83 0.8,17.79 -7.57,13l-4.58,-2.65c0,1.2 0,2.4 0,3.6c0,9.67 -15,9.65 -15,0l0,-9.77c0,-0.78 0,-1.64 -0.07,-2.51l-3.1,-1.8l-7.36,4.25c-1.47,0.85 -3.22,2.09 -5.06,3.23l0,3.19c0.76,0.48 1.5,0.95 2.18,1.34l8.47,4.87c8.38,4.8 0.82,17.76 -7.57,12.95l-3.08,-1.77l0,5.61c0,9.67 -15,9.65 -15,0l0,-5.55l-3.09,1.77c-8.39,4.81 -15.94,-8.15 -7.57,-12.95l8.47,-4.87c0.69,-0.39 1.42,-0.86 2.19,-1.34l0,-3.36c-1.94,-1.2 -3.77,-2.5 -5.3,-3.39l-7,-4.05l-3.19,1.84c0,0.9 -0.08,1.75 -0.08,2.52l0,9.77c0,9.67 -15,9.65 -15,0c0,-1.2 0,-2.4 0,-3.6l-4.57,2.65c-8.39,4.84 -15.93,-8.13 -7.58,-13l4.65,-2.68l-3.14,-1.76c-7.07,-4.11 -2.73,-14 3.84,-14a7.45,7.45 0 0 1 3.74,1.07l8.44,4.91c0.67,0.39 1.42,0.78 2.18,1.18l3.2,-1.85l0,-7l15,0l0,7l4.83,2.69l2.68,1.54l4.82,2.79l0.1,0.06l4.82,-2.79l2.58,-1.49l4.92,-2.84l0.1,-0.06l0,-7l15,0l0,7.12l3,1.73c0.78,-0.41 1.53,-0.8 2.18,-1.18l8.45,-4.91a7.35,7.35 0 0 1 3.74,-1.07c6.57,0 10.89,9.92 3.83,14l-3.15,1.82l4.65,2.74z" class="cls-3"/>
  <path fill="#231815" id="svg_17" d="m265.086282,171.380889c-1.63,3.23 -5.6,4.39 -8.93,3.48c-1,-0.52 -1.91,-1 -2.89,-1.48a7,7 0 0 1 -2.41,-5.46a7.48,7.48 0 0 1 0.84,-3.5a73.57,73.57 0 0 1 13.39,6.96z" class="cls-1"/>
  <path fill="#231815" id="svg_18" d="m251.696282,164.380889c3.1,-5.84 13.76,-4.84 14.15,3c0,0.17 0,0.34 0,0.51s0,0.39 0,0.58a7.32,7.32 0 0 1 -0.76,2.88a73.57,73.57 0 0 0 -13.39,-6.97z" class="cls-1"/>
  <path fill="#231815" id="svg_19" d="m256.156282,174.840889c3.33,0.91 7.3,-0.25 8.93,-3.48l0.65,0.43c-0.14,2.95 -0.41,5.88 -0.82,8.77a67.93,67.93 0 0 0 -8.76,-5.72z" class="cls-1"/>
  <path fill="#231815" id="svg_20" d="m250.726282,164.020889a81.11,81.11 0 0 0 -0.89,-8.29a78.41,78.41 0 0 1 15.84,7.2c0.08,1.48 0.15,3 0.17,4.46c-0.39,-7.83 -11.05,-8.83 -14.15,-3l-0.97,-0.37z" class="cls-1"/>
  <path fill="#231815" id="svg_21" d="m251.696282,164.380889a7.48,7.48 0 0 0 -0.84,3.5c0,-1.3 -0.06,-2.59 -0.13,-3.88l0.97,0.38z" class="cls-1"/>
  <path fill="#231815" id="svg_22" d="m250.856282,167.900889a7,7 0 0 0 2.41,5.46c-0.84,-0.41 -1.7,-0.81 -2.57,-1.19c0.09,-1.41 0.15,-2.79 0.16,-4.27z" class="cls-1"/>
  <path fill="#231815" id="svg_23" d="m224.636282,159.260889a73.53,73.53 0 0 1 26.09,4.76c0.07,1.29 0.12,2.58 0.13,3.88s-0.07,2.86 -0.16,4.27a67.43,67.43 0 0 0 -13.82,-4.3c-25.73,-5 -52.51,6.56 -67.15,28.1c-1.84,2.71 -5.13,4.47 -8.47,3.44c-14.89,-4.59 -30.85,-3.33 -44.43,4.5a54.08,54.08 0 0 0 -14.15,11.78a74.24,74.24 0 0 1 -4.29,-6.54a62.19,62.19 0 0 1 58,-18.76a62.94,62.94 0 0 1 6.87,1.79a73.63,73.63 0 0 1 61.38,-32.92z" class="cls-1"/>
  <path fill="#231815" id="svg_24" d="m160.266282,183.630889a82.28,82.28 0 0 1 79.26,-30.49a77.68,77.68 0 0 1 10.36,2.59a81.11,81.11 0 0 1 0.89,8.29a73.75,73.75 0 0 0 -87.48,28.16a62.94,62.94 0 0 0 -6.87,-1.79l0.4,-2l8.47,-3.45c-1.7,-0.5 -3.36,-0.93 -5.03,-1.31z" class="cls-1"/>
  <path fill="#f8b62d" id="svg_25" d="m99.156282,125.510889c17.54,-28.95 52.48,-44.6 85.76,-37.86a82.65,82.65 0 0 1 64.92,68.08a77.68,77.68 0 0 0 -10.31,-2.59a82.28,82.28 0 0 0 -79.21,30.49a71.07,71.07 0 0 0 -65.5,18.5a83,83 0 0 1 4.34,-76.62z" class="cls-4"/>
  <path fill="#231815" id="svg_26" d="m165.246282,184.950889l-8.47,3.43c1.11,-1.64 2.28,-3.23 3.49,-4.77c1.67,0.4 3.33,0.83 4.98,1.34z" class="cls-1"/>
  <path fill="#231815" id="svg_27" d="m94.766282,202.130889a71.07,71.07 0 0 1 65.5,-18.5c-1.21,1.54 -2.38,3.13 -3.49,4.77l-0.4,2a62.19,62.19 0 0 0 -58,18.76a78.9,78.9 0 0 1 -3.61,-7.03z" class="cls-1"/>
  <path fill="#231815" id="svg_28" d="m81.836282,251.380889a62.23,62.23 0 0 0 62.23,62.23l7.24,0c0,3.78 -2.38,7.56 -7.24,7.5a70.88,70.88 0 0 1 -47.42,-18.61c-23.28,-21.42 -28.82,-57.14 -13.66,-84.79c0.5,-0.92 1,-1.82 1.57,-2.7c0.53,0.95 1.08,1.91 1.65,2.85c0.91,1.51 1.87,3 2.86,4.41a61.89,61.89 0 0 0 -7.23,29.11z" class="cls-1"/>
  <path fill="#231815" id="svg_29" d="m98.386282,209.150889a74.24,74.24 0 0 0 4.29,6.54a55.42,55.42 0 0 0 -8.47,13.43c-1.81,-2.19 -3.52,-4.48 -5.14,-6.84a61.51,61.51 0 0 1 9.32,-13.13z" class="cls-1"/>
  <path fill="#231815" id="svg_30" d="m94.766282,202.130889a68.18,68.18 0 0 0 -10.24,12.89c-19.27,-34.5 -15,-78.17 10,-108.76c25.37,-31.05 69.58,-43.24 107.27,-29.42a97.94,97.94 0 0 1 63.86,86.09a78.41,78.41 0 0 0 -15.84,-7.2a82.65,82.65 0 0 0 -64.92,-68.08c-33.28,-6.74 -68.22,8.91 -85.76,37.86a83,83 0 0 0 -4.37,76.62z" class="cls-1"/>
  <path fill="#231815" id="svg_31" d="m84.526282,215.020889a68.18,68.18 0 0 1 10.21,-12.89a78.9,78.9 0 0 0 3.62,7a61.51,61.51 0 0 0 -9.32,13.13c-1,-1.44 -1.95,-2.9 -2.86,-4.41c-0.54,-0.92 -1.09,-1.88 -1.65,-2.83z" class="cls-1"/>
  <path fill="#231815" id="svg_32" d="m151.306282,313.620889l-7.24,0a62.23,62.23 0 0 1 -55,-91.34c1.62,2.36 3.33,4.65 5.14,6.84a54.63,54.63 0 0 0 -3,36.6c6.48,23.81 28.34,40.13 52.84,40.4c4.82,0.06 7.23,3.78 7.26,7.5z" class="cls-1"/>
  <path fill="#231815" id="svg_33" d="m64.746282,99.000889c8.37,4.83 0.8,17.79 -7.57,12.95l-29.15,-16.82c-8.36,-4.84 -0.8,-17.79 7.57,-13l29.15,16.87z" class="cls-1"/>
  <path fill="#231815" id="svg_34" d="m57.176282,223.860889c8.38,-4.84 15.93,8.12 7.57,12.95l-29.15,16.82c-8.38,4.85 -15.92,-8.12 -7.57,-12.95l29.15,-16.82z" class="cls-1"/>
 </g>
</svg>