<svg width="325" height="325" xmlns="http://www.w3.org/2000/svg">

 <title/>
 <g>
  <title>background</title>
  <rect fill="none" id="canvas_background" height="327" width="327" y="-1" x="-1"/>
 </g>
 <g>
  <title>Layer 1</title>
  <circle fill="#f8b62d" id="svg_1" r="84.800003" cy="159.221024" cx="158.670845" class="cls-1"/>
  <path fill="#231815" id="svg_2" d="m235.970845,159.221024c-0.26,31.93 -20.27,61.69 -50.61,72.59a78.28,78.28 0 0 1 -86.62,-23.7c-20.52,-24.83 -22.88,-61.14 -6.38,-88.66s49.76,-42.55 81.4,-36.08a78.17,78.17 0 0 1 62.21,75.85c0.08,9.65 15.08,9.67 15,0a93.46,93.46 0 0 0 -61,-86.83c-36.08,-13.29 -78.52,-1.52 -102.67,28.34s-27.79,72.65 -7.9,105.83c20,33.39 59.57,50.62 97.68,43.11c42.75,-8.45 73.59,-47.29 73.89,-90.45c0.08,-9.65 -14.92,-9.66 -15,0z" class="cls-2"/>
  <path fill="#231815" id="svg_3" d="m166.170845,40.611024l0,-32c0,-9.65 -15,-9.67 -15,0l0,32c0,9.65 15,9.67 15,0z" class="cls-2"/>
  <line fill="#231815" id="svg_4" y2="28.811024" y1="56.501024" x2="83.380845" x1="99.360845" class="cls-2"/>
  <path fill="#231815" id="svg_5" d="m105.840845,52.711024l-16,-27.69c-4.83,-8.36 -17.79,-0.81 -13,7.57l16,27.69c4.83,8.36 17.79,0.81 13,-7.57z" class="cls-2"/>
  <line fill="#231815" id="svg_6" y2="83.931024" y1="99.911024" x2="28.260845" x1="55.950845" class="cls-2"/>
  <path fill="#231815" id="svg_7" d="m59.730845,93.441024l-27.69,-16c-8.38,-4.84 -15.94,8.12 -7.57,13l27.69,16c8.38,4.84 15.94,-8.12 7.57,-13z" class="cls-2"/>
  <line fill="#231815" id="svg_8" y2="159.221024" y1="159.221024" x2="8.090845" x1="40.060845" class="cls-2"/>
  <path fill="#231815" id="svg_9" d="m40.060845,151.721024l-32,0c-9.65,0 -9.67,15 0,15l32,0c9.65,0 9.67,-15 0,-15z" class="cls-2"/>
  <line fill="#231815" id="svg_10" y2="234.511024" y1="218.531024" x2="28.260845" x1="55.950845" class="cls-2"/>
  <path fill="#231815" id="svg_11" d="m52.160845,212.051024l-27.69,16c-8.36,4.83 -0.81,17.79 7.57,13l27.69,-16c8.36,-4.83 0.81,-17.79 -7.57,-13z" class="cls-2"/>
  <line fill="#231815" id="svg_12" y2="289.631024" y1="261.941024" x2="83.380845" x1="99.360845" class="cls-2"/>
  <path fill="#231815" id="svg_13" d="m92.890845,258.161024l-16,27.69c-4.84,8.38 8.12,15.94 13,7.57l16,-27.69c4.84,-8.38 -8.12,-15.94 -13,-7.57z" class="cls-2"/>
  <line fill="#231815" id="svg_14" y2="309.801024" y1="277.831024" x2="158.670845" x1="158.670845" class="cls-2"/>
  <path fill="#231815" id="svg_15" d="m151.170845,277.831024l0,32c0,9.65 15,9.67 15,0l0,-32c0,-9.65 -15,-9.67 -15,0z" class="cls-2"/>
  <line fill="#231815" id="svg_16" y2="289.631024" y1="261.941024" x2="233.960845" x1="217.980845" class="cls-2"/>
  <path fill="#231815" id="svg_17" d="m211.500845,265.731024l16,27.69c4.83,8.36 17.79,0.81 13,-7.57l-16,-27.69c-4.83,-8.36 -17.79,-0.81 -13,7.57z" class="cls-2"/>
  <line fill="#231815" id="svg_18" y2="234.511024" y1="218.531024" x2="289.080845" x1="261.390845" class="cls-2"/>
  <path fill="#231815" id="svg_19" d="m257.610845,225.001024l27.69,16c8.38,4.84 15.94,-8.12 7.57,-13l-27.69,-16c-8.38,-4.84 -15.94,8.12 -7.57,13z" class="cls-2"/>
  <line fill="#231815" id="svg_20" y2="159.221024" y1="159.221024" x2="309.250845" x1="277.280845" class="cls-2"/>
  <path fill="#231815" id="svg_21" d="m277.280845,166.721024l32,0c9.65,0 9.67,-15 0,-15l-32,0c-9.65,0 -9.67,15 0,15z" class="cls-2"/>
  <line fill="#231815" id="svg_22" y2="83.931024" y1="99.911024" x2="289.080845" x1="261.390845" class="cls-2"/>
  <path fill="#231815" id="svg_23" d="m265.180845,106.391024l27.69,-16c8.36,-4.83 0.81,-17.79 -7.57,-13l-27.69,16c-8.36,4.83 -0.81,17.79 7.57,13z" class="cls-2"/>
  <line fill="#231815" id="svg_24" y2="28.811024" y1="56.501024" x2="233.960845" x1="217.980845" class="cls-2"/>
  <path fill="#231815" id="svg_25" d="m224.450845,60.281024l16,-27.69c4.84,-8.38 -8.12,-15.94 -13,-7.57l-16,27.69c-4.84,8.38 8.12,15.94 13,7.57z" class="cls-2"/>
  <text font-weight="700" font-family="DINAlternate-Bold, DIN Alternate" stroke-miterlimit="10" stroke="#231815" fill="#ffffff" font-size="161.72px" id="svg_26" x="-3.4" y="-30.77" class="cls-3"/>
 </g>
</svg>