<svg width="280" height="250" xmlns="http://www.w3.org/2000/svg">

 <title/>
 <g>
  <title>background</title>
  <rect fill="none" id="canvas_background" height="252" width="282" y="-1" x="-1"/>
 </g>
 <g>
  <title>Layer 1</title>
  <path fill="#231815" id="svg_1" d="m179.591057,15.56002a7.49,7.49 0 0 0 -0.85,3.51c0,-1.31 -0.05,-2.6 -0.12,-3.89l0.97,0.38z" class="cls-1"/>
  <path fill="#231815" id="svg_2" d="m22.661057,53.32002a78.8,78.8 0 0 0 3.61,7a62.74,62.74 0 0 0 -9.32,13.13c-1,-1.44 -1.94,-2.9 -2.86,-4.41c-0.57,-0.94 -1.11,-1.89 -1.65,-2.85a67.83,67.83 0 0 1 10.22,-12.87z" class="cls-1"/>
  <path fill="#231815" id="svg_3" d="m177.731057,6.93002q0.64,4.08 0.89,8.28a73.75,73.75 0 0 0 -83.51,22.76l-2,-1.83c-1.65,-0.51 -3.31,-0.94 -5,-1.32a82.26,82.26 0 0 1 79.22,-30.48a75.08,75.08 0 0 1 10.4,2.59z" class="cls-1"/>
  <path fill="#231815" id="svg_4" d="m230.181057,60.36002l-5.24,-5.24c1.26,0.27 2.5,0.6 3.73,0.95c0.53,1.42 1.05,2.84 1.51,4.29z" class="cls-1"/>
  <path fill="#231815" id="svg_5" d="m14.111057,69.06002c0.92,1.51 1.88,3 2.86,4.41a62.23,62.23 0 0 0 55,91.34l7.24,0c0,3.78 -2.38,7.56 -7.24,7.5a70.86,70.86 0 0 1 -47.42,-18.61c-23.29,-21.42 -28.83,-57.13 -13.66,-84.79c0.5,-0.91 1,-1.82 1.56,-2.7c0.53,0.96 1.07,1.91 1.66,2.85z" class="cls-1"/>
  <path fill="#231815" id="svg_6" d="m178.621057,15.21002c0.07,1.29 0.11,2.58 0.12,3.89s-0.07,2.85 -0.15,4.27a67,67 0 0 0 -13.82,-4.31c-25.74,-5 -52.51,6.56 -67.16,28.1c-1.84,2.71 -5.13,4.47 -8.47,3.45c-14.89,-4.6 -30.85,-3.34 -44.43,4.49a54.24,54.24 0 0 0 -14.15,11.79c-1.54,-2.13 -3,-4.31 -4.29,-6.55a62.38,62.38 0 0 1 64.87,-17q1.86,-2.79 4,-5.4a73.75,73.75 0 0 1 83.53,-22.76l-0.05,0.03z" class="cls-1"/>
  <path fill="#231815" id="svg_7" d="m179.591057,15.56002a74.23,74.23 0 0 1 13.39,7c-1.64,3.24 -5.6,4.39 -8.94,3.48c-0.94,-0.52 -1.91,-1 -2.88,-1.48a7,7 0 0 1 -2.42,-5.45a7.49,7.49 0 0 1 0.85,-3.55z" class="cls-1"/>
  <path fill="#231815" id="svg_8" d="m177.731057,6.93002a77.74,77.74 0 0 1 15.83,7.19c0.09,1.48 0.16,3 0.17,4.46c-0.39,-7.83 -11,-8.82 -14.14,-3l-1,-0.38q-0.21,-4.19 -0.86,-8.27z" class="cls-1"/>
  <path fill="#231815" id="svg_9" d="m94.751057,164.81002l45.43,0a8.41,8.41 0 0 1 -0.86,3.59l-15.85,32.16q17.73,-17.9 35.48,-35.78l21.16,0q-38.76,39.1 -77.53,78.19a6.18,6.18 0 0 1 -6.86,2.88c-4.8,-0.8 -8.68,-6.62 -5.58,-11.4l30.71,-62.37l-18.64,0a7.58,7.58 0 0 1 -7.46,-7.27z" class="cls-1"/>
  <path fill="#231815" id="svg_10" d="m95.731057,160.83002l10.82,-18.45q7.44,-12.72 14.89,-25.42c1,-1.68 1.86,-3.41 2.83,-5c2,-3.29 4.45,-5.94 9.08,-6.11q3.41,-0.1 6.82,-0.16c13,-0.21 26,0.16 38.9,0.16c5.42,0 9.7,6.47 6.48,11.29l-12.06,18l18,0c6.52,0 9.87,8.2 5.3,12.8l-11.93,12c-1.6,1.61 -3.19,3.22 -4.79,4.82l-21.12,0l14.54,-14.66l-14,0c-5.42,0 -9.71,-6.47 -6.48,-11.29l12.06,-18l-28.53,0l-21.24,36.25l17.55,0a7.3,7.3 0 0 1 7.33,7.7l-45.43,0a7.22,7.22 0 0 1 0.98,-3.93z" class="cls-1"/>
  <path fill="#231815" id="svg_11" d="m184.041057,26.03002c3.34,0.91 7.3,-0.24 8.94,-3.48c0.21,0.15 0.43,0.29 0.65,0.43c-0.14,2.95 -0.42,5.88 -0.82,8.78a66.41,66.41 0 0 0 -8.77,-5.73z" class="cls-1"/>
  <path fill="#231815" id="svg_12" d="m93.111057,36.14002l2,1.83q-2.09,2.61 -4,5.4a62.53,62.53 0 0 0 -6.88,-1.79l0.4,-2l8.48,-3.44z" class="cls-1"/>
  <path fill="#231815" id="svg_13" d="m178.741057,19.10002a7,7 0 0 0 2.42,5.45c-0.85,-0.41 -1.71,-0.81 -2.57,-1.18c0.08,-1.42 0.14,-2.81 0.15,-4.27z" class="cls-1"/>
  <path fill="#231815" id="svg_14" d="m9.721057,102.56002a61.92,61.92 0 0 1 7.23,-29.11c1.62,2.37 3.34,4.65 5.14,6.84a54.59,54.59 0 0 0 -3,36.61c6.47,23.8 28.33,40.12 52.84,40.39c4.79,0.06 7.2,3.78 7.24,7.5l-7.24,0a62.23,62.23 0 0 1 -62.21,-62.23z" class="cls-1"/>
  <path fill="#231815" id="svg_15" d="m88.111057,34.82002c1.67,0.38 3.33,0.81 5,1.32l-8.45,3.42q1.68,-2.43 3.45,-4.74z" class="cls-1"/>
  <path fill="#dcdddd" id="svg_16" d="m191.491057,135.15002l-18,0l12.06,-18c3.22,-4.82 -1.06,-11.29 -6.48,-11.29c-12.94,0 -25.95,-0.37 -38.9,-0.16q-3.42,0.06 -6.82,0.16c-4.63,0.17 -7.06,2.82 -9.08,6.11c-1,1.58 -1.85,3.31 -2.83,5q-7.45,12.7 -14.89,25.42l-10.82,18.45a7.22,7.22 0 0 0 -1,4l-15.53,0c0,-3.72 -2.45,-7.44 -7.24,-7.5c-24.51,-0.27 -46.37,-16.59 -52.84,-40.39a54.59,54.59 0 0 1 3,-36.61a55.48,55.48 0 0 1 8.47,-13.42a54.24,54.24 0 0 1 14.15,-11.79c13.58,-7.83 29.54,-9.09 44.43,-4.49c3.34,1 6.63,-0.74 8.47,-3.45c14.65,-21.54 41.42,-33.14 67.16,-28.1a67,67 0 0 1 13.82,4.31c0.86,0.37 1.72,0.77 2.57,1.18s1.94,1 2.88,1.48a67.1,67.1 0 0 1 31.67,38.31a7.52,7.52 0 0 0 5.24,5.24c22.53,4.89 38.5,25.75 35.61,49c-2.74,22.1 -22,38.41 -44,38.7c-4.78,0.07 -7.19,3.79 -7.24,7.5l-25.24,0c1.6,-1.6 3.19,-3.21 4.79,-4.82l11.93,-12c4.53,-4.64 1.18,-12.84 -5.34,-12.84z" class="cls-2"/>
  <path fill="#faee00" id="svg_17" d="m165.031057,120.86002l-12.06,18c-3.23,4.82 1.06,11.29 6.48,11.29l14,0l-14.54,14.66l-18.73,0a7.3,7.3 0 0 0 -7.33,-7.7l-17.55,0l21.24,-36.25l28.49,0z" class="cls-3"/>
  <path fill="#231815" id="svg_18" d="m193.741057,19.17002c0,0.14 0,0.28 0,0.42c0,-0.14 0,-0.28 0,-0.42z" class="cls-1"/>
  <path fill="#231815" id="svg_19" d="m26.271057,60.34002c1.31,2.24 2.75,4.42 4.29,6.55a55.48,55.48 0 0 0 -8.45,13.42c-1.8,-2.19 -3.52,-4.47 -5.14,-6.84a62.74,62.74 0 0 1 9.3,-13.13z" class="cls-1"/>
  <path fill="#231815" id="svg_20" d="m192.981057,22.56002a7.32,7.32 0 0 0 0.75,-2.88c0,1.11 -0.05,2.21 -0.1,3.31c-0.22,-0.15 -0.44,-0.29 -0.65,-0.43z" class="cls-1"/>
  <path fill="#231815" id="svg_21" d="m212.601057,164.81002a51.75,51.75 0 0 0 10.35,-102.46a74,74 0 0 0 -29.32,-39.37c0.05,-1.1 0.09,-2.2 0.1,-3.31l0,-0.11c0,-0.14 0,-0.28 0,-0.42l0,-0.07c0,-0.18 0,-0.35 0,-0.52c0,-1.5 -0.08,-3 -0.17,-4.46a83.68,83.68 0 0 1 35.11,41.95c-1.23,-0.35 -2.47,-0.68 -3.73,-0.95l5.24,5.24c-0.46,-1.45 -1,-2.87 -1.51,-4.29c27.42,7.88 46.27,35.15 42.73,63.9a59.9,59.9 0 0 1 -58.8,52.34c-4.87,0.07 -7.28,-3.71 -7.24,-7.5l7.24,0.03z" class="cls-1"/>
  <path fill="#231815" id="svg_22" d="m26.271057,60.34002a78.8,78.8 0 0 1 -3.61,-7a71.05,71.05 0 0 1 65.45,-18.52q-1.82,2.31 -3.49,4.77l-0.4,2a62.19,62.19 0 0 0 -58,18.76l0.05,-0.01z" class="cls-1"/>
  <path fill="#231815" id="svg_23" d="m179.591057,15.56002c3.1,-5.83 13.75,-4.84 14.14,3c0,0.17 0,0.34 0,0.52l0,0.07c0,0.14 0,0.28 0,0.42l0,0.08a7.32,7.32 0 0 1 -0.75,2.88a74.23,74.23 0 0 0 -13.39,-6.97z" class="cls-1"/>
  <path fill="#231815" id="svg_24" d="m264.351057,113.07002a51.74,51.74 0 0 1 -51.75,51.74l-7.24,0c0,-3.71 2.46,-7.43 7.24,-7.5c22,-0.29 41.22,-16.6 44,-38.7c2.89,-23.28 -13.08,-44.14 -35.61,-49a7.52,7.52 0 0 1 -5.24,-5.24a66.75,66.75 0 0 0 -22.9,-32.58c0.4,-2.9 0.68,-5.83 0.82,-8.78a74,74 0 0 1 29.32,39.37a51.77,51.77 0 0 1 41.36,50.69z" class="cls-1"/>
  <path fill="#faee00" id="svg_25" d="m158.951057,164.81002q-17.74,17.89 -35.48,35.75l15.85,-32.19a8.41,8.41 0 0 0 0.86,-3.59l18.77,0.03z" class="cls-3"/>
  <path stroke-miterlimit="10" stroke="#231815" fill="none" id="svg_26" d="m12.441057,66.21002c-0.54,0.88 -1.06,1.79 -1.56,2.7c-15.17,27.66 -9.63,63.37 13.66,84.79a70.86,70.86 0 0 0 47.42,18.61c4.86,0.06 7.27,-3.72 7.24,-7.5" class="cls-4"/>
  <path stroke-miterlimit="10" stroke="#231815" fill="none" id="svg_27" d="m88.111057,34.82002a71.05,71.05 0 0 0 -65.49,18.5" class="cls-4"/>
  <path stroke-miterlimit="10" stroke="#231815" fill="none" id="svg_28" d="m177.731057,6.93002a75.08,75.08 0 0 0 -10.36,-2.59a82.26,82.26 0 0 0 -79.26,30.48" class="cls-4"/>
  <path stroke-miterlimit="10" stroke="#231815" fill="none" id="svg_29" d="m205.361057,164.81002c0,3.79 2.37,7.57 7.24,7.5a59.9,59.9 0 0 0 58.8,-52.34c3.54,-28.75 -15.31,-56 -42.73,-63.9" class="cls-4"/>
  <path stroke-miterlimit="10" stroke="#231815" fill="none" id="svg_30" d="m228.671057,56.07002a83.68,83.68 0 0 0 -35.11,-41.95" class="cls-4"/>
  <path stroke-miterlimit="10" stroke="#231815" fill="none" id="svg_31" d="m228.671057,56.07002c0.53,1.42 1,2.84 1.51,4.29l-5.24,-5.24c1.26,0.27 2.5,0.6 3.73,0.95z" class="cls-4"/>
  <path stroke-miterlimit="10" stroke="#231815" fill="none" id="svg_32" d="m93.111057,36.14002c-1.65,-0.51 -3.31,-0.94 -5,-1.32q-1.82,2.31 -3.49,4.77l8.49,-3.45z" class="cls-4"/>
  <path stroke-miterlimit="10" stroke="#231815" fill="none" id="svg_33" d="m193.731057,18.56002c0,-1.5 -0.08,-3 -0.17,-4.46a77.74,77.74 0 0 0 -15.83,-7.19q0.64,4.08 0.89,8.28" class="cls-4"/>
  <path stroke-miterlimit="10" stroke="#231815" fill="none" id="svg_34" d="m179.591057,15.56002c3.1,-5.83 13.75,-4.84 14.14,3" class="cls-4"/>
  <path stroke-miterlimit="10" stroke="#231815" fill="none" id="svg_35" d="m26.271057,60.34002a78.8,78.8 0 0 1 -3.61,-7a67.83,67.83 0 0 0 -10.22,12.89c0.54,1 1.08,1.91 1.65,2.85c0.92,1.51 1.88,3 2.86,4.41" class="cls-4"/>
  <path stroke-miterlimit="10" stroke="#231815" fill="none" id="svg_36" d="m193.731057,18.56002c0,0.17 0,0.34 0,0.52l0,0.07" class="cls-4"/>
  <path stroke-miterlimit="10" stroke="#231815" fill="none" id="svg_37" d="m193.731057,19.56002c0,-0.14 0,-0.28 0,-0.42" class="cls-4"/>
  <path stroke-miterlimit="10" stroke="#231815" fill="none" id="svg_38" d="m193.731057,19.56002l0,0.08" class="cls-4"/>
  <path stroke-miterlimit="10" stroke="#231815" fill="none" id="svg_39" d="m193.631057,22.98002c0.05,-1.1 0.09,-2.2 0.1,-3.31" class="cls-4"/>
  <path stroke-miterlimit="10" stroke="#231815" fill="none" id="svg_40" d="m192.811057,31.76002a66.75,66.75 0 0 1 22.9,32.58a7.52,7.52 0 0 0 5.24,5.24c22.53,4.89 38.5,25.75 35.61,49c-2.74,22.1 -22,38.41 -44,38.7c-4.78,0.07 -7.19,3.79 -7.24,7.5l7.24,0a51.75,51.75 0 0 0 10.35,-102.46a74,74 0 0 0 -29.32,-39.37" class="cls-4"/>
  <path stroke-miterlimit="10" stroke="#231815" fill="none" id="svg_41" d="m178.621057,15.21002a73.75,73.75 0 0 0 -83.51,22.76q-2.09,2.61 -4,5.4a62.53,62.53 0 0 0 -6.88,-1.79a62.19,62.19 0 0 0 -58,18.76" class="cls-4"/>
  <path stroke-miterlimit="10" stroke="#231815" fill="none" id="svg_42" d="m30.561057,66.89002a54.24,54.24 0 0 1 14.15,-11.79c13.58,-7.83 29.54,-9.09 44.43,-4.49c3.34,1 6.63,-0.74 8.47,-3.45c14.65,-21.54 41.42,-33.14 67.16,-28.1a67,67 0 0 1 13.82,4.31" class="cls-4"/>
  <path stroke-miterlimit="10" stroke="#231815" fill="none" id="svg_43" d="m16.951057,73.47002a62.23,62.23 0 0 0 55,91.34l7.24,0c0,-3.72 -2.45,-7.44 -7.24,-7.5c-24.51,-0.27 -46.37,-16.59 -52.84,-40.39a54.59,54.59 0 0 1 3,-36.61" class="cls-4"/>
  <path stroke-miterlimit="10" stroke="#231815" fill="none" id="svg_44" d="m192.981057,22.56002a74.23,74.23 0 0 0 -13.39,-7" class="cls-4"/>
  <path stroke-miterlimit="10" stroke="#231815" fill="none" id="svg_45" d="m181.161057,24.56002c1,0.47 1.94,1 2.88,1.48" class="cls-4"/>
  <path stroke-miterlimit="10" stroke="#231815" fill="none" id="svg_46" d="m26.271057,60.34002a62.74,62.74 0 0 0 -9.32,13.13c1.62,2.37 3.34,4.65 5.14,6.84a55.48,55.48 0 0 1 8.47,-13.42c-1.54,-2.13 -2.98,-4.33 -4.29,-6.55z" class="cls-4"/>
  <path stroke-miterlimit="10" stroke="#231815" fill="none" id="svg_47" d="m179.591057,15.56002l-1,-0.38c0.07,1.29 0.11,2.58 0.12,3.89a7.49,7.49 0 0 1 0.88,-3.51z" class="cls-4"/>
  <path stroke-miterlimit="10" stroke="#231815" fill="none" id="svg_48" d="m178.741057,19.10002c0,1.42 -0.07,2.85 -0.15,4.27c0.86,0.37 1.72,0.77 2.57,1.18a7,7 0 0 1 -2.42,-5.45z" class="cls-4"/>
  <path stroke-miterlimit="10" stroke="#231815" fill="none" id="svg_49" d="m184.041057,26.03002a66.41,66.41 0 0 1 8.77,5.73c0.4,-2.9 0.68,-5.83 0.82,-8.78c-0.22,-0.14 -0.44,-0.28 -0.65,-0.43c-1.64,3.24 -5.6,4.39 -8.94,3.48z" class="cls-4"/>
  <path stroke-miterlimit="10" stroke="#231815" fill="none" id="svg_50" d="m180.111057,164.81002c1.6,-1.6 3.19,-3.21 4.79,-4.82l11.93,-12c4.57,-4.6 1.22,-12.8 -5.3,-12.8l-18,0l12.06,-18c3.22,-4.82 -1.06,-11.29 -6.48,-11.29c-12.94,0 -25.95,-0.37 -38.9,-0.16q-3.42,0.06 -6.82,0.16c-4.63,0.17 -7.06,2.82 -9.08,6.11c-1,1.58 -1.85,3.31 -2.83,5q-7.45,12.7 -14.89,25.42l-10.82,18.45a7.22,7.22 0 0 0 -1,4a7.58,7.58 0 0 0 7.46,7.3l18.6,0l-30.72,62.3c-3.1,4.78 0.78,10.6 5.58,11.4a6.18,6.18 0 0 0 6.86,-2.88q38.75,-39.09 77.56,-78.19z" class="cls-4"/>
  <path stroke-miterlimit="10" stroke="#231815" fill="none" id="svg_51" d="m158.951057,164.81002q-17.74,17.89 -35.48,35.75l15.85,-32.19a8.41,8.41 0 0 0 0.86,-3.59a7.3,7.3 0 0 0 -7.33,-7.7l-17.55,0l21.24,-36.25l28.49,0l-12.06,18c-3.23,4.82 1.06,11.29 6.48,11.29l14,0l-14.5,14.69z" class="cls-4"/>
 </g>
</svg>